<svg xmlns="http://www.w3.org/2000/svg"
     version="1.1"
     xmlns:xlink="http://www.w3.org/1999/xlink"
     xmlns:svgjs="http://svgjs.com/svgjs"
     width="512"
     height="512"
     x="0"
     y="0"
     viewBox="0 0 58 58"
     style="enable-background:new 0 0 512 512"
     xml:space="preserve"
     class=""><g><g fill="none" fill-rule="evenodd"><path fill="#90bae1" d="M58 2.18V44H0V2.18A2.1 2.1 0 0 1 2 0h54a2.1 2.1 0 0 1 2 2.18z" data-original="#90bae1" class=""></path><path fill="#b0d3f0"
                                                                                                                                                                                         d="M56.39.04C47.03.42 0 4.18 0 42V2.18A2.1 2.1 0 0 1 2 0h54c.131-.002.262.011.39.04z"
                                                                                                                                                                                         data-original="#b0d3f0"
                                                                                                                                                                                         class=""></path><path fill="#285680"
                                                                                                                                                                                                               d="M12 0v6.43c0 .703-.368 1.355-.97 1.72l-3.56 2.14 1.99 2.66c.42.556.52 1.292.26 1.94l-1.79 4.48a1 1 0 0 1-1.86-.74l1.79-4.48-1.99-2.66a1.991 1.991 0 0 1 .57-2.92L10 6.43V0zM49 43a1 1 0 0 1-1-1v-6.434a2.01 2.01 0 0 1 .97-1.714l3.565-2.139-2-2.663a2.014 2.014 0 0 1-.258-1.943l1.792-4.479a1 1 0 0 1 1.856.744l-1.788 4.478 2 2.663a2 2 0 0 1-.571 2.915L50 35.566V42a1 1 0 0 1-1 1z"
                                                                                                                                                                                                               data-original="#285680"></path><path fill="#3f5c6c"
                                                                                                                                                                                                                                                    d="m40 54-11 2-11-2 3-6 8-2 8 2z"
                                                                                                                                                                                                                                                    data-original="#3f5c6c"></path><path fill="#547580"
                                                                                                                                                                                                                                                                                         d="M58 42v3.82A2.1 2.1 0 0 1 56 48H2a2.1 2.1 0 0 1-2-2.18V42zM46 56a2.006 2.006 0 0 1-2 2H14a2.015 2.015 0 0 1-2-2 2.006 2.006 0 0 1 2-2h30a2.015 2.015 0 0 1 2 2z"
                                                                                                                                                                                                                                                                                         data-original="#547580"></path><path fill="#c03a2b"
                                                                                                                                                                                                                                                                                                                              d="M22.707 11.293a1 1 0 0 0-1.414 0L19 13.586l-2.293-2.293a1 1 0 0 0-1.414 1.414L17.586 15l-2.293 2.293a1 1 0 1 0 1.414 1.414L19 16.414l2.293 2.293a1 1 0 0 0 1.414-1.414L20.414 15l2.293-2.293a1 1 0 0 0 0-1.414zM40.414 15l2.293-2.293a1 1 0 0 0-1.414-1.414L39 13.586l-2.293-2.293a1 1 0 0 0-1.414 1.414L37.586 15l-2.293 2.293a1 1 0 1 0 1.414 1.414L39 16.414l2.293 2.293a1 1 0 0 0 1.414-1.414z"
                                                                                                                                                                                                                                                                                                                              data-original="#c03a2b"
                                                                                                                                                                                                                                                                                                                              class=""></path><path fill="#e64c3c"
                                                                                                                                                                                                                                                                                                                                                    d="M39 25.11V29a4 4 0 1 1-8 0v-5.93z"
                                                                                                                                                                                                                                                                                                                                                    data-original="#e64c3c"
                                                                                                                                                                                                                                                                                                                                                    class=""></path><g fill="#c03a2b"><path d="M35 29a1 1 0 0 1-1-1v-4.32a1 1 0 0 1 2 0V28a1 1 0 0 1-1 1z" fill="#c03a2b" data-original="#c03a2b" class=""></path>
  <path d="M43 29a1 1 0 0 1-.778-.372C42.169 28.564 38.316 24 29 24c-9.335 0-13.185 4.582-13.222 4.628a1 1 0 1 1-1.559-1.253C14.4 27.156 18.639 22 29 22s14.6 5.156 14.781 5.375A1 1 0 0 1 43 29z"
        fill="#c03a2b"
        data-original="#c03a2b"
        class=""></path></g></g></g></svg>
