<svg xmlns="http://www.w3.org/2000/svg"
     version="1.1"
     width="512"
     height="512"
     x="0"
     y="0"
     viewBox="0 0 512 512"
     style="enable-background:new 0 0 512 512"
     xml:space="preserve"
     class="">
  <g>
    <circle cx="256"
            cy="256"
            r="256"
            fill="#b25826"
            class=""></circle>
    <path
      fill="#8d5333"
      d="M512 256c0-14.129-1.145-27.991-3.347-41.498L401.676 107.524 67.544 355.074l154.723 154.723A258.38 258.38 0 0 0 256 512c141.385 0 256-114.615 256-256z"
      class=""></path>
    <path fill="#364859"
          d="M417.355 207.642c6.911-17.437 9.002-37.013 4.961-56.76-11.064-54.06-63.858-88.915-117.919-77.851-18.703 3.828-35.104 12.653-48.103 24.794-22.858-21.748-55.627-32.339-88.88-25.533-54.006 11.053-88.826 63.794-77.773 117.801a100.242 100.242 0 0 0 5.611 18.308c-37.268 18.189-59.026 59.857-50.326 102.365 10.314 50.392 59.526 82.883 109.918 72.569a94.541 94.541 0 0 0 6.542-1.588c13.034 46.664 60.15 75.962 108.35 66.097 28.084-5.748 50.603-23.581 63.256-46.963 16.059 4.682 33.457 5.639 50.984 2.051 57.517-11.772 94.6-67.941 82.828-125.458-6.216-30.371-24.813-55.04-49.449-69.832z"
          class=""></path>
    <path fill="#1e262d"
          d="M466.804 277.474c-6.216-30.371-24.814-55.04-49.449-69.832 6.911-17.437 9.002-37.013 4.961-56.76-11.064-54.06-63.858-88.915-117.919-77.851-18.703 3.828-35.104 12.653-48.103 24.794V449.6a93.863 93.863 0 0 0 13.442-1.756c28.084-5.748 50.603-23.581 63.256-46.963 16.059 4.682 33.457 5.638 50.984 2.051 57.517-11.772 94.6-67.941 82.828-125.458z"
          class=""></path>
    <path
      fill="#ffffff"
      d="M183.067 299.64c-31.703 0-57.496-25.792-57.496-57.495s25.792-57.496 57.496-57.496c11.52 0 22.639 3.397 32.154 9.825l9.115 6.158-12.315 18.23-9.115-6.157c-5.864-3.962-12.724-6.056-19.838-6.056-19.572 0-35.496 15.923-35.496 35.496 0 19.572 15.923 35.495 35.496 35.495 7.275 0 13.399-2.169 18.202-6.446a26.35 26.35 0 0 0 2.661-2.748l7.069-8.428 16.857 14.138-7.069 8.428a48.532 48.532 0 0 1-4.886 5.039c-8.83 7.861-20.183 12.017-32.835 12.017z"
      class=""></path>
    <path fill="#d3d3d3"
          d="m401.621 339.351-49.263-.151.053-14.612 2.472-2.594c.041-.044 6.429-6.902 21.003-27.726 3.187-4.554 4.486-7.769 5.008-9.754l.149-1.167a6.645 6.645 0 0 0-6.621-6.182c-3.165 0-5.903 2.246-6.511 5.339l-1.734 8.832-17.663-3.469 1.735-8.831c2.261-11.514 12.428-19.871 24.173-19.871 13.584 0 24.636 11.051 24.636 24.635v.573l-.535 3.824c-1.178 5.08-3.833 10.595-7.891 16.393-4.858 6.941-8.867 12.423-12.093 16.691l23.136.071z"
          class=""></path>
    <path fill="#ffffff"
          d="M289.7 299.64c-31.703 0-57.496-25.792-57.496-57.495s25.792-57.496 57.496-57.496c31.703 0 57.495 25.792 57.495 57.496S321.403 299.64 289.7 299.64zm0-92.991c-19.572 0-35.496 15.923-35.496 35.496 0 19.572 15.923 35.495 35.496 35.495 19.572 0 35.495-15.923 35.495-35.495s-15.923-35.496-35.495-35.496z"
          class=""></path>
    <path
      fill="#d3d3d3"
      d="M289.7 184.649c-12.452 0-23.982 3.992-33.406 10.745v34.758c4.929-13.688 18.041-23.503 33.406-23.503 19.572 0 35.495 15.923 35.495 35.496 0 19.572-15.923 35.495-35.495 35.495-15.365 0-28.477-9.815-33.406-23.503v34.758c9.424 6.753 20.954 10.745 33.406 10.745 31.703 0 57.495-25.792 57.495-57.495s-25.792-57.496-57.495-57.496z"
      class=""></path>
  </g>
</svg>
