<svg xmlns="http://www.w3.org/2000/svg"
     version="1.1"
     xmlns:xlink="http://www.w3.org/1999/xlink"
     xmlns:svgjs="http://svgjs.com/svgjs"
     width="512"
     height="512"
     x="0"
     y="0"
     viewBox="0 0 256 256"
     style="enable-background:new 0 0 512 512"
     xml:space="preserve"
     class=""><g><ellipse cx="186.987" cy="88.707" fill="#808285" rx="33.166" ry="33.192" transform="rotate(-40.78 187.027 88.73)" data-original="#808285" class=""></ellipse><ellipse cx="172.591"
                                                                                                                                                                                       cy="33.243"
                                                                                                                                                                                       fill="#808285"
                                                                                                                                                                                       rx="13.847"
                                                                                                                                                                                       ry="13.858"
                                                                                                                                                                                       transform="rotate(-40.78 172.628 33.254)"
                                                                                                                                                                                       data-original="#808285"
                                                                                                                                                                                       class=""></ellipse><path fill="#58595b"
                                                                                                                                                                                                                d="M222.826 128.004a39.106 39.106 0 0 0-19.904-34.082c1.952-20.571-13.154-38.828-33.741-40.778a37.442 37.442 0 0 0-7.07 0c-10.636-18.821-34.528-25.463-53.363-14.835a39.15 39.15 0 0 0-14.847 14.835C73.313 51.193 55.042 66.287 53.09 86.858a37.378 37.378 0 0 0 0 7.064c-18.836 10.628-25.483 34.5-14.847 53.321a39.15 39.15 0 0 0 14.847 14.835c-1.952 20.571 13.154 38.828 33.741 40.778 2.351.223 4.718.223 7.07 0 10.636 18.821 34.528 25.463 53.364 14.835a39.15 39.15 0 0 0 14.847-14.835c20.587 1.951 38.859-13.144 40.811-33.714a37.378 37.378 0 0 0 0-7.064 39.105 39.105 0 0 0 19.903-34.074z"
                                                                                                                                                                                                                data-original="#58595b"
                                                                                                                                                                                                                class=""></path><path fill="#808285"
                                                                                                                                                                                                                                      d="M125.195 67.133a33.211 33.211 0 0 0-7.194-6.241c8.814 13.681 6.454 32.103-6.206 43.039-11.385 9.834-27.548 10.546-39.601 2.803A33.485 33.485 0 0 0 75 110.493c11.983 13.872 32.934 15.411 46.796 3.438 13.86-11.973 15.382-32.926 3.399-46.798z"
                                                                                                                                                                                                                                      data-original="#808285"
                                                                                                                                                                                                                                      class=""></path><circle cx="128"
                                                                                                                                                                                                                                                              cy="128"
                                                                                                                                                                                                                                                              r="71.504"
                                                                                                                                                                                                                                                              fill="#377de2"
                                                                                                                                                                                                                                                              data-original="#377de2"
                                                                                                                                                                                                                                                              class=""></circle><path fill="#2266d3"
                                                                                                                                                                                                                                                                                      d="M174.467 73.65c10.695 12.498 17.155 28.728 17.155 46.467 0 39.491-32.014 71.504-71.504 71.504-17.739 0-33.969-6.459-46.467-17.155 13.115 15.325 32.598 25.037 54.35 25.037 39.491 0 71.504-32.014 71.504-71.504-.001-21.751-9.713-41.234-25.038-54.349z"
                                                                                                                                                                                                                                                                                      data-original="#2266d3"></path><path fill="#91b56b"
                                                                                                                                                                                                                                                                                                                           d="m128.654 86.619 2.687-6.718a1.986 1.986 0 0 1 1.203-1.142l10.246-3.488a1.987 1.987 0 0 0 1.097-.917l7.687-13.88a71.396 71.396 0 0 0-23.575-3.978 72.36 72.36 0 0 0-7.705.41L118.14 74.79c-.039.319.001.642.115.943l4.125 10.854a1.984 1.984 0 0 0 1.856 1.28h2.575c.812 0 1.542-.494 1.843-1.248zM197.231 133.118a2.302 2.302 0 0 1-.679-2.957l.073-.135a2.301 2.301 0 0 1 2.873-1.049c.004-.326.007-.652.007-.978 0-22.336-10.241-42.279-26.284-55.392l-6.812 7.587c-.379.422-.589.97-.589 1.538v9.662a2.3 2.3 0 0 1-2.301 2.301h-1.583a2.303 2.303 0 0 1-2.024-1.205l-2.36-4.357a2.302 2.302 0 0 0-2.402-1.174l-3.463.577a2.301 2.301 0 0 0-1.923 2.27v1.253c0 .739.355 1.433.954 1.866l3.134 2.264a2.302 2.302 0 0 1 .92 2.26l-.707 4.067a2.3 2.3 0 0 1-1.361 1.721l-5.632 2.414a2.302 2.302 0 0 0-1.395 2.115v.268a2.3 2.3 0 0 0 2.301 2.301h7.343a2.3 2.3 0 0 0 1.515-.569l3.409-2.982a2.303 2.303 0 0 1 1.423-.568l5.332-.213a2.305 2.305 0 0 1 1.881.851l3.545 4.379a2.3 2.3 0 0 0 1.789.853h1.778c.59 0 1.157-.227 1.585-.633l4.439-4.217a2.3 2.3 0 0 1 1.743-.627l6.297.434a2.3 2.3 0 0 1 1.783 1.06l1.973 3.101a2.3 2.3 0 0 1-1.087 3.372l-1.155.462a2.296 2.296 0 0 1-1.329.115l-4.378-.922a2.296 2.296 0 0 0-.973.005l-.828.184c-1.74.387-2.399 2.52-1.18 3.82l1.085 1.157a2.3 2.3 0 0 1 .611 1.345l1.048 10.48c.028.279.106.55.232.8l4.721 9.442a2.301 2.301 0 0 0 2.058 1.272h5.344a71.406 71.406 0 0 0 1.225-8.192z"
                                                                                                                                                                                                                                                                                                                           data-original="#91b56b"
                                                                                                                                                                                                                                                                                                                           class=""></path><path fill="#76a34f"
                                                                                                                                                                                                                                                                                                                                                 d="M199.499 127.135c-.118-20.351-9.509-40.332-25.029-53.482 8.014 9.366 13.65 20.828 15.97 33.45a2.306 2.306 0 0 1 1.401 1.001l1.973 3.101a2.3 2.3 0 0 1-1.087 3.372c-.05.03-1.273.505-1.28.507.567 7.913-.245 16.159-2.259 23.597l1.393 2.785a2.301 2.301 0 0 0 2.058 1.272h5.344c.566-2.702.975-5.44 1.225-8.192l-1.978-1.428c-2.189-1.579-.235-5.136 2.267-4.14.009-.614.01-1.229.002-1.843z"
                                                                                                                                                                                                                                                                                                                                                 data-original="#76a34f"></path><path fill="#91b56b"
                                                                                                                                                                                                                                                                                                                                                                                      d="m93.756 181.529 4.325-2.403c.065-.036.128-.075.189-.118l7.79-5.453c.203-.142.38-.319.523-.521l2.119-3c.238-.336.567-.598.948-.752l5.89-2.39a2.152 2.152 0 0 0 1.236-1.325l1.831-5.595c.118-.362.331-.686.615-.939l3.981-3.54a2.152 2.152 0 0 0 .075-3.146l-3.863-3.778a2.153 2.153 0 0 0-1.505-.614h-2.841a2.152 2.152 0 0 1-2.063-1.541l-1.467-4.952a2.15 2.15 0 0 0-1.072-1.299l-6.503-3.372a2.196 2.196 0 0 1-.106-.059l-8.299-4.918a2.151 2.151 0 0 0-2.512.23l-.725.632a2.151 2.151 0 0 1-2.611.167l-2.121-1.419a2.15 2.15 0 0 1-.839-1.091l-2.815-8.221a2.152 2.152 0 0 0-2.036-1.455h-2.678a2.152 2.152 0 0 1-2.113-2.561l.805-4.158a2.152 2.152 0 0 1 2.113-1.743h11.054c.716 0 11.244-8.768 13.875-10.968a2.13 2.13 0 0 1 1.375-.496h8.53a2.151 2.151 0 0 0 2.152-2.152v-6.373c0-.318-.07-.631-.206-.919l-4.179-8.85a2.16 2.16 0 0 0-.752-.872l-7.622-5.081c-1.43-.953-3.345.072-3.345 1.79v2.02c0 .666-.309 1.295-.836 1.703l-3.895 3.01c-.755.584-1.805.6-2.578.04l-5.794-4.196a2.15 2.15 0 0 1-.885-1.6l-.411-6.159a2.152 2.152 0 0 1 .683-1.72l2.026-1.882a2.152 2.152 0 0 1 2.344-.387l4.174 1.871a2.152 2.152 0 0 0 2.987-1.525l.591-2.839a2.152 2.152 0 0 0-.535-1.909l-1.298-1.387c-17.96 8.489-31.818 24.237-37.784 43.459l2.861 5.961c.089.185.203.356.34.508l11.697 12.996c.249.277.566.484.919.602l4.469 1.489c.469.156.869.469 1.135.886l3.192 5.016c.145.228.331.426.55.585l1.465 1.065a2.152 2.152 0 0 1 .808 2.316L85.05 145.7a2.154 2.154 0 0 0 .224 1.676l5.32 8.947c.143.24.237.505.278.781l.666 4.442c.059.392.008.793-.146 1.158l-8.715 20.6a71.845 71.845 0 0 0 6.662 4.854l3.633-5.881a2.14 2.14 0 0 1 .784-.748zM181.648 158.246l10.92-5.644a2.302 2.302 0 0 0 1.245-2.044v-.819a2.301 2.301 0 0 0-1.827-2.252l-3.085-.649a2.298 2.298 0 0 1-1.106-.579l-4.211-3.977a2.302 2.302 0 0 1-.694-1.318l-1.926-12.325a2.303 2.303 0 0 0-.872-1.47l-5.51-4.229a2.304 2.304 0 0 0-1.401-.476h-5.808a2.3 2.3 0 0 1-1.683-.732l-6.517-6.991a2.3 2.3 0 0 0-1.683-.732h-10.204a2.3 2.3 0 0 0-.907.186l-4.95 2.122a2.3 2.3 0 0 0-1.126 1.037l-6.548 12.341a2.301 2.301 0 0 0 .15 2.402l6.091 8.668a2.301 2.301 0 0 0 1.883.978h9.316a2.3 2.3 0 0 1 2.217 1.685l3.712 13.363a2.3 2.3 0 0 1-.058 1.411l-1.678 4.555c-.072.196-.117.4-.134.608l-1.096 13.422c-.031.374.031.749.178 1.094l1.717 4.007a2.3 2.3 0 0 0 2.41 1.376l6.317-.815a2.3 2.3 0 0 0 1.591-.963l5.395-7.707c.101-.145.219-.277.351-.395l4.897-4.381a2.3 2.3 0 0 0 .645-.978l2.865-8.471a2.3 2.3 0 0 1 1.124-1.308z"
                                                                                                                                                                                                                                                                                                                                                                                      data-original="#91b56b"
                                                                                                                                                                                                                                                                                                                                                                                      class=""></path><path fill="#76a34f"
                                                                                                                                                                                                                                                                                                                                                                                                            d="m181.648 158.246 10.92-5.644a2.302 2.302 0 0 0 1.245-2.044v-.819a2.301 2.301 0 0 0-1.827-2.252l-3.085-.649a2.298 2.298 0 0 1-1.106-.579l-.808-.763c-5.846 15.394-16.855 28.246-30.912 36.441a2.3 2.3 0 0 0 2.388 1.327l6.317-.815a2.3 2.3 0 0 0 1.591-.963l5.395-7.707c.101-.145.219-.277.351-.395l4.897-4.381a2.3 2.3 0 0 0 .645-.978l2.865-8.471a2.3 2.3 0 0 1 1.124-1.308z"
                                                                                                                                                                                                                                                                                                                                                                                                            data-original="#76a34f"></path><circle cx="67.018"
                                                                                                                                                                                                                                                                                                                                                                                                                                                   cy="203.519"
                                                                                                                                                                                                                                                                                                                                                                                                                                                   r="26.181"
                                                                                                                                                                                                                                                                                                                                                                                                                                                   fill="#939598"
                                                                                                                                                                                                                                                                                                                                                                                                                                                   transform="rotate(-45 66.985 203.547)"
                                                                                                                                                                                                                                                                                                                                                                                                                                                   data-original="#939598"
                                                                                                                                                                                                                                                                                                                                                                                                                                                   class=""></circle><circle cx="99.893"
                                                                                                                                                                                                                                                                                                                                                                                                                                                                             cy="197.999"
                                                                                                                                                                                                                                                                                                                                                                                                                                                                             r="22.122"
                                                                                                                                                                                                                                                                                                                                                                                                                                                                             fill="#808285"
                                                                                                                                                                                                                                                                                                                                                                                                                                                                             transform="rotate(-62.8 99.89 198.054)"
                                                                                                                                                                                                                                                                                                                                                                                                                                                                             data-original="#808285"
                                                                                                                                                                                                                                                                                                                                                                                                                                                                             class=""></circle><circle cx="188.225"
                                                                                                                                                                                                                                                                                                                                                                                                                                                                                                       cy="180.836"
                                                                                                                                                                                                                                                                                                                                                                                                                                                                                                       r="32.312"
                                                                                                                                                                                                                                                                                                                                                                                                                                                                                                       fill="#939598"
                                                                                                                                                                                                                                                                                                                                                                                                                                                                                                       transform="rotate(-25.71 188.46 180.923)"
                                                                                                                                                                                                                                                                                                                                                                                                                                                                                                       data-original="#939598"
                                                                                                                                                                                                                                                                                                                                                                                                                                                                                                       class=""></circle><path fill="#808285"
                                                                                                                                                                                                                                                                                                                                                                                                                                                                                                                               d="M219.871 174.312c-1.841-8.929-7.201-16.231-14.335-20.759a32.233 32.233 0 0 1 4.335 10.759c3.603 17.478-7.645 34.567-25.122 38.171-8.549 1.762-17.005-.029-23.835-4.364 6.983 11.031 20.292 17.156 33.835 14.364 17.478-3.604 28.725-20.693 25.122-38.171z"
                                                                                                                                                                                                                                                                                                                                                                                                                                                                                                                               data-original="#808285"
                                                                                                                                                                                                                                                                                                                                                                                                                                                                                                                               class=""></path><path fill="#58595b"
                                                                                                                                                                                                                                                                                                                                                                                                                                                                                                                                                     d="M219.871 174.312a32.184 32.184 0 0 0-11.413-18.67 32.169 32.169 0 0 1 6.413 13.67c3.603 17.478-7.645 34.567-25.122 38.171-9.815 2.023-19.507-.637-26.757-6.453 7.35 9.169 19.458 13.988 31.757 11.453 17.478-3.604 28.725-20.693 25.122-38.171z"
                                                                                                                                                                                                                                                                                                                                                                                                                                                                                                                                                     data-original="#58595b"
                                                                                                                                                                                                                                                                                                                                                                                                                                                                                                                                                     class=""></path><circle cx="199.504"
                                                                                                                                                                                                                                                                                                                                                                                                                                                                                                                                                                             cy="151.665"
                                                                                                                                                                                                                                                                                                                                                                                                                                                                                                                                                                             r="14.86"
                                                                                                                                                                                                                                                                                                                                                                                                                                                                                                                                                                             fill="#808285"
                                                                                                                                                                                                                                                                                                                                                                                                                                                                                                                                                                             transform="rotate(-25.71 199.736 151.721)"
                                                                                                                                                                                                                                                                                                                                                                                                                                                                                                                                                                             data-original="#808285"
                                                                                                                                                                                                                                                                                                                                                                                                                                                                                                                                                                             class=""></circle><ellipse cx="79.313"
                                                                                                                                                                                                                                                                                                                                                                                                                                                                                                                                                                                                        cy="60.892"
                                                                                                                                                                                                                                                                                                                                                                                                                                                                                                                                                                                                        fill="#808285"
                                                                                                                                                                                                                                                                                                                                                                                                                                                                                                                                                                                                        rx="33.166"
                                                                                                                                                                                                                                                                                                                                                                                                                                                                                                                                                                                                        ry="33.192"
                                                                                                                                                                                                                                                                                                                                                                                                                                                                                                                                                                                                        transform="rotate(-40.78 79.298 60.897)"
                                                                                                                                                                                                                                                                                                                                                                                                                                                                                                                                                                                                        data-original="#808285"
                                                                                                                                                                                                                                                                                                                                                                                                                                                                                                                                                                                                        class=""></ellipse><ellipse cx="50.216"
                                                                                                                                                                                                                                                                                                                                                                                                                                                                                                                                                                                                                                    cy="84.015"
                                                                                                                                                                                                                                                                                                                                                                                                                                                                                                                                                                                                                                    fill="#808285"
                                                                                                                                                                                                                                                                                                                                                                                                                                                                                                                                                                                                                                    rx="33.166"
                                                                                                                                                                                                                                                                                                                                                                                                                                                                                                                                                                                                                                    ry="33.192"
                                                                                                                                                                                                                                                                                                                                                                                                                                                                                                                                                                                                                                    transform="rotate(-40.78 50.225 84.034)"
                                                                                                                                                                                                                                                                                                                                                                                                                                                                                                                                                                                                                                    data-original="#808285"
                                                                                                                                                                                                                                                                                                                                                                                                                                                                                                                                                                                                                                    class=""></ellipse><path fill="#939598"
                                                                                                                                                                                                                                                                                                                                                                                                                                                                                                                                                                                                                                                             d="M50.26 113.2a2 2 0 0 1-2-2c0-1.11.89-2 2-2h.01a1.995 1.995 0 0 1 0 3.99c0 .01-.01.01-.01.01zm-7.89-1.17c-.19 0-.391-.03-.58-.09a29.07 29.07 0 0 1-13.641-8.86 29.122 29.122 0 0 1-7.119-19.05c0-.76.029-1.48.09-2.16.56-7.77 4.109-14.86 10.01-19.95 4.76-4.11 10.58-6.53 16.83-7l2.7-.21.81-2.59c1.62-5.16 4.65-9.77 8.76-13.32a29.136 29.136 0 0 1 19.04-7.09c8.5 0 16.561 3.69 22.11 10.12.35.4.52.92.479 1.45a1.964 1.964 0 0 1-.68 1.37c-.81.69-2.13.59-2.82-.21a25.209 25.209 0 0 0-19.09-8.73c-6.02 0-11.859 2.17-16.43 6.12a25.013 25.013 0 0 0-7.55 11.49l-1.221 3.88a1.97 1.97 0 0 1-1.75 1.4l-4.06.31c-5.39.41-10.41 2.5-14.51 6.04-5.08 4.39-8.15 10.51-8.65 17.23-.04.59-.069 1.21-.069 1.85.01 6.1 2.13 11.79 6.14 16.44a25.169 25.169 0 0 0 11.77 7.64s.011 0 .011.01a2.004 2.004 0 0 1 1.34 2.49c-.26.85-1.03 1.42-1.92 1.42z"
                                                                                                                                                                                                                                                                                                                                                                                                                                                                                                                                                                                                                                                             data-original="#939598"
                                                                                                                                                                                                                                                                                                                                                                                                                                                                                                                                                                                                                                                             class=""></path></g></svg>
