<svg xmlns="http://www.w3.org/2000/svg"
     version="1.1"
     xmlns:xlink="http://www.w3.org/1999/xlink"
     xmlns:svgjs="http://svgjs.com/svgjs"
     width="512"
     height="512"
     x="0"
     y="0"
     viewBox="0 0 512 512"
     style="enable-background:new 0 0 512 512"
     xml:space="preserve"
     class=""><g><circle cx="256" cy="256" r="192" fill="#045f9c" data-original="#045f9c" class=""></circle><path fill="#2993ce"
                                                                                                                  d="M256 88c102.007 0 185.419 79.553 191.616 180 .245-3.97.384-7.968.384-12 0-106.039-85.961-192-192-192S64 149.961 64 256c0 4.032.139 8.03.384 12C70.581 167.553 153.993 88 256 88z"
                                                                                                                  data-original="#2993ce"
                                                                                                                  class=""></path><circle cx="256"
                                                                                                                                          cy="256"
                                                                                                                                          r="104"
                                                                                                                                          fill="#0c5177"
                                                                                                                                          data-original="#0c5177"></circle><path fill="#d1dee0"
                                                                                                                                                                                 d="m378.774 40.429-58.762 51.416a17.416 17.416 0 0 0-5.052 7.6l-5.612 16.836a17.384 17.384 0 0 1-2.588 4.94L291.846 141.1a17.409 17.409 0 0 0-.558 20.1l22.052 33.079a17.412 17.412 0 0 0 8.373 6.644l50.392 18.9a17.409 17.409 0 0 0 15.77-1.816l5.516-3.677a17.41 17.41 0 0 0 6.859-19.991l-6.49-19.469a17.41 17.41 0 0 1 10.4-21.807l39.942-14.978a17.409 17.409 0 0 1 15.77 1.816l.171.114a17.411 17.411 0 0 0 25.229-6.7l8.886-17.773a17.41 17.41 0 0 0-4.7-21.38L471.445 79.75a17.41 17.41 0 0 1-4.7-21.38A17.41 17.41 0 0 0 455.4 33.694l-36.7-9.174a17.406 17.406 0 0 0-12 1.318l-24.247 12.121a17.372 17.372 0 0 0-3.679 2.47z"
                                                                                                                                                                                 data-original="#d1dee0"
                                                                                                                                                                                 class=""></path><path fill="#b6c4c6"
                                                                                                                                                                                                       d="m494.161 102.611-8.887 17.772a17.408 17.408 0 0 1-25.228 6.7l-.171-.114a17.409 17.409 0 0 0-15.77-1.815l-39.941 14.978a17.41 17.41 0 0 0-10.4 21.806l.343 1.028a17.359 17.359 0 0 1 10.061-9.9l39.941-14.978a17.412 17.412 0 0 1 15.77 1.815l.171.114a17.409 17.409 0 0 0 25.228-6.7l8.887-17.773a17.4 17.4 0 0 0 .59-14.256c-.182.447-.377.888-.594 1.323zM399.908 193.317a17.364 17.364 0 0 1-6.517 8.082l-5.516 3.677a17.409 17.409 0 0 1-15.77 1.815l-50.392-18.9a17.406 17.406 0 0 1-8.373-6.644l-22.052-33.079a17.288 17.288 0 0 1-1.667-3.189 17.4 17.4 0 0 0 1.667 16.125l22.052 33.079a17.412 17.412 0 0 0 8.373 6.644l50.392 18.9a17.409 17.409 0 0 0 15.77-1.816l5.516-3.677a17.41 17.41 0 0 0 6.859-19.991z"
                                                                                                                                                                                                       data-original="#b6c4c6"
                                                                                                                                                                                                       class=""></path><path fill="#4895aa"
                                                                                                                                                                                                                             d="M112 196v16a20 20 0 0 0 20 20h64a20 20 0 0 0 20-20 20 20 0 0 0-20-20 20 20 0 0 1-20-20 20 20 0 0 1 20-20h45.448a23.546 23.546 0 0 0 21.06-13.016l1.9-3.805A23.546 23.546 0 0 0 260 108a23.546 23.546 0 0 1-4.411-27.179l8.266-16.648A194.974 194.974 0 0 0 256 64 192.025 192.025 0 0 0 81.42 176H92a20 20 0 0 1 20 20zM200 390.32v-1.263a26.113 26.113 0 0 0-10.446-20.891 26.115 26.115 0 0 1-4.723-37.2l3.845-4.806a20.253 20.253 0 0 0-1.494-26.973 19.878 19.878 0 0 0-24.592-2.8l-35.28 22.05a18.593 18.593 0 0 1-26.485-24.082 28.3 28.3 0 0 0-9.616-36.209l-26.578-17.725Q64.013 248.13 64 256a191.929 191.929 0 0 0 97.75 167.3l21.834-8.734A26.114 26.114 0 0 0 200 390.32zM425.941 240A33.941 33.941 0 0 0 392 273.941a33.941 33.941 0 0 1-9.941 24l-4.118 4.118a33.941 33.941 0 0 1-24 9.941H308a20 20 0 0 0-20 20 20 20 0 0 0 20 20h20a16 16 0 0 1 16 16 16 16 0 0 1-16 16h-35.508A28.492 28.492 0 0 0 264 412.492a28.5 28.5 0 0 0 .851 6.911l6.985 27.943C370.465 439.292 448 356.705 448 256c0-5.389-.233-10.723-.669-16z"
                                                                                                                                                                                                                             data-original="#4895aa"
                                                                                                                                                                                                                             class=""></path><path fill="#d1dee0"
                                                                                                                                                                                                                                                   d="m164.989 259.566 22.437-19.945a14.863 14.863 0 0 1 18.119-1.258l17.412 11.609a14.863 14.863 0 0 0 17.529-.761l26.106-20.884a14.861 14.861 0 0 1 12.2-2.969l31.871 6.374a14.882 14.882 0 0 1 2.605.775l.807.322a45.252 45.252 0 0 1 26.7 54.447 45.251 45.251 0 0 1-19.527 25.942l-21.708 13.567A113.249 113.249 0 0 1 239.519 344h-72.336a35.954 35.954 0 0 1-35.593-30.869l-1.166-8.166A14.862 14.862 0 0 1 145.137 288 14.862 14.862 0 0 0 160 273.137v-2.463a14.858 14.858 0 0 1 4.989-11.108z"
                                                                                                                                                                                                                                                   data-original="#d1dee0"
                                                                                                                                                                                                                                                   class=""></path><path fill="#b6c4c6"
                                                                                                                                                                                                                                                                         d="M340.778 271.276a45.251 45.251 0 0 1-19.527 25.942l-21.708 13.567A113.248 113.248 0 0 1 239.52 328h-72.337a35.955 35.955 0 0 1-35.593-30.869l-.04-.279a14.758 14.758 0 0 0-1.126 8.113l1.166 8.166A35.955 35.955 0 0 0 167.183 344h72.337a113.248 113.248 0 0 0 60.023-17.215l21.708-13.567a45.251 45.251 0 0 0 19.527-25.942 45.072 45.072 0 0 0 1.027-20.437 45.406 45.406 0 0 1-1.027 4.437z"
                                                                                                                                                                                                                                                                         data-original="#b6c4c6"
                                                                                                                                                                                                                                                                         class=""></path><path fill="#d1dee0"
                                                                                                                                                                                                                                                                                               d="m382.627 353.373-5.254 5.254A32 32 0 0 0 368 381.255V400l-4.211 12.634a21.827 21.827 0 0 1-15.412 14.272l-.188.047a21.825 21.825 0 0 0-16.108 25.453 20.638 20.638 0 0 0 23.629 16.309l15.474-2.579A11.007 11.007 0 0 1 384 476.993 11.007 11.007 0 0 0 395.007 488h25.7a27.27 27.27 0 0 0 19.283-7.987l16.026-16.026A27.27 27.27 0 0 0 464 444.7V424a24 24 0 0 0 24-24 24 24 0 0 0-24-24h-16a32 32 0 0 0-32-32h-10.745a32 32 0 0 0-22.628 9.373z"
                                                                                                                                                                                                                                                                                               data-original="#d1dee0"
                                                                                                                                                                                                                                                                                               class=""></path><path fill="#b6c4c6"
                                                                                                                                                                                                                                                                                                                     d="M439.987 464.013A27.269 27.269 0 0 1 420.705 472h-25.7A11.007 11.007 0 0 1 384 460.993a11.007 11.007 0 0 0-12.816-10.857l-15.474 2.579a20.636 20.636 0 0 1-22.52-12.627 21.737 21.737 0 0 0-1.109 12.318 20.638 20.638 0 0 0 23.629 16.309l15.474-2.579A11.007 11.007 0 0 1 384 476.993 11.007 11.007 0 0 0 395.007 488h25.7a27.269 27.269 0 0 0 19.282-7.987l16.026-16.026A27.27 27.27 0 0 0 464 444.7v-16a27.27 27.27 0 0 1-7.987 19.283zM464 408v16a24 24 0 0 0 24-24 23.949 23.949 0 0 0-1.371-8A24.007 24.007 0 0 1 464 408z"
                                                                                                                                                                                                                                                                                                                     data-original="#b6c4c6"
                                                                                                                                                                                                                                                                                                                     class=""></path><path fill="#d1dee0"
                                                                                                                                                                                                                                                                                                                                           d="M24 404v16a12 12 0 0 0 12 12h8a12 12 0 0 1 12 12v9.836A26.164 26.164 0 0 0 82.164 480H116a12 12 0 0 0 12-12 12 12 0 0 1 12-12h24a12 12 0 0 0 12-12v-24a12 12 0 0 0-12-12h-8a12 12 0 0 1-12-12 12 12 0 0 0-12-12h-8a12 12 0 0 1-12-12 20 20 0 0 0-20-20H76a28 28 0 0 0-28 28 12 12 0 0 1-12 12 12 12 0 0 0-12 12z"
                                                                                                                                                                                                                                                                                                                                           data-original="#d1dee0"
                                                                                                                                                                                                                                                                                                                                           class=""></path><path fill="#b6c4c6"
                                                                                                                                                                                                                                                                                                                                                                 d="M164 440h-24a12 12 0 0 0-12 12 12 12 0 0 1-12 12H82.164A26.164 26.164 0 0 1 56 437.836V428a12 12 0 0 0-12-12h-8a12 12 0 0 1-12-12v16a12 12 0 0 0 12 12h8a12 12 0 0 1 12 12v9.836A26.164 26.164 0 0 0 82.164 480H116a12 12 0 0 0 12-12 12 12 0 0 1 12-12h24a12 12 0 0 0 12-12v-16a12 12 0 0 1-12 12z"
                                                                                                                                                                                                                                                                                                                                                                 data-original="#b6c4c6"
                                                                                                                                                                                                                                                                                                                                                                 class=""></path><g fill="#d1dee0"><rect width="64" height="48" x="24" y="144" rx="18.808" fill="#d1dee0" data-original="#d1dee0" class=""></rect>
  <rect width="64"
        height="40"
        x="424"
        y="272"
        rx="15.211"
        fill="#d1dee0"
        data-original="#d1dee0"
        class=""></rect>
  <path d="M48 72.942v4.724a21.589 21.589 0 0 0 25.823 21.169 21.591 21.591 0 0 1 22.2 9.2l12.936 19.4a21.589 21.589 0 0 0 28.448 6.9L192 104l5.883-2.941A21.592 21.592 0 0 0 209.6 84.8l4.2-29.4a21.587 21.587 0 0 0-11.717-22.363l-13.524-6.762A21.583 21.583 0 0 0 178.9 24H96.942a21.59 21.59 0 0 0-15.265 6.323L54.323 57.677A21.59 21.59 0 0 0 48 72.942z"
        fill="#d1dee0"
        data-original="#d1dee0"
        class=""></path></g><path fill="#b6c4c6"
                                  d="M209.6 68.8a21.591 21.591 0 0 1-11.717 16.257L192 88l-54.6 30.331a21.589 21.589 0 0 1-28.448-6.9L96.02 92.03a21.591 21.591 0 0 0-22.2-9.2 21.6 21.6 0 0 1-25.06-15.478 21.545 21.545 0 0 0-.76 5.59v4.724a21.589 21.589 0 0 0 25.823 21.169 21.591 21.591 0 0 1 22.2 9.2l12.936 19.4a21.589 21.589 0 0 0 28.448 6.9L192 104l5.883-2.941A21.591 21.591 0 0 0 209.6 84.8l4.2-29.4a21.533 21.533 0 0 0-.881-9.831z"
                                  data-original="#b6c4c6"
                                  class=""></path></g></svg>
