<svg xmlns="http://www.w3.org/2000/svg"
     version="1.1"
     xmlns:xlink="http://www.w3.org/1999/xlink"
     xmlns:svgjs="http://svgjs.com/svgjs"
     width="512"
     height="512"
     x="0"
     y="0"
     viewBox="0 0 501 501"
     style="enable-background:new 0 0 512 512"
     xml:space="preserve"
     class="">
  <g>
    <path fill="#63bcfa"
          d="M5.533 260.089c-.022-1.36-.033-2.723-.033-4.089 0-135.006 110.161-245.09 245.167-245C385.9 11.09 495.5 120.746 495.5 256c0 27.594-4.562 54.123-12.973 78.874-18.205 53.572-68.698 89.46-125.279 89.46h-183.48c-91.366-.001-166.74-72.89-168.235-164.245z"
          data-original="#63bcfa"
          class=""></path>
    <path fill="#738c96"
          d="M334.5 435c0 20.336-33.941 61.097-43.969 62.745a245.904 245.904 0 0 1-26.147 2.868c-4.595.257-14.225-15.947-18.884-15.947-54.017 0-146.408-55.998-146.667-56-2.4-2.111-14.868 7.06-17.183 4.858C34.74 388.893 5.5 325.861 5.5 256c0-4.767.136-9.501.405-14.2 27.127 6.053 48.713 26.8 55.968 53.453C70.423 291.863 79.744 290 89.5 290c20.58 0 39.223 8.289 52.775 21.71C154.539 286.991 180.035 270 209.5 270c39.743 0 72.266 30.913 74.836 70.006C314.624 360.718 334.5 395.538 334.5 435z"
          data-original="#738c96"></path>
    <path fill="#607882"
          d="M479.5 330c-25.292 0-46.597 17.072-53.019 40.321A75.985 75.985 0 0 0 419.5 370c-41.421 0-75 33.579-75 75 0 12.163 26.381 24.678 35.037 19.304 49.144-30.508 86.696-77.922 104.529-134.117A55.602 55.602 0 0 0 479.5 330z"
          data-original="#607882"
          class=""></path>
    <path fill="#bbe0fb"
          d="M473.324 119.412c0 16.244-13.168 29.412-29.412 29.412S414.5 135.656 414.5 119.412 427.668 90 443.912 90c16.243 0 29.412 13.168 29.412 29.412z"
          data-original="#bbe0fb"></path>
    <path fill="#e3f0fb"
          d="M473.323 119.412c0 2.697-.363 5.308-1.043 7.789a29.43 29.43 0 0 1-7.789 1.043c-16.244 0-29.412-13.168-29.412-29.412 0-2.696.363-5.308 1.043-7.789A29.43 29.43 0 0 1 443.911 90c16.245 0 29.412 13.168 29.412 29.412z"
          data-original="#e3f0fb"></path>
    <path fill="#fff5f5"
          d="M464.5 228.235c0 27.289-22.122 49.412-49.412 49.412a49.194 49.194 0 0 1-29.308-9.627c-4.54 22.603-24.503 39.627-48.442 39.627-27.289 0-49.412-22.123-49.412-49.412 0-22.255 14.713-41.073 34.943-47.259a49.214 49.214 0 0 1-4.943-21.565c0-27.289 22.123-49.412 49.412-49.412 17.449 0 32.785 9.045 41.577 22.702a24.3 24.3 0 0 1 11.173-2.702c13.482 0 24.412 10.93 24.412 24.412 0 1.323-.106 2.622-.308 3.888 12.31 8.988 20.308 23.528 20.308 39.936z"
          data-original="#fff5f5"></path>
    <path fill="#e1ebf0"
          d="M355.625 304.152c-6.411 2.556-13.483 3.808-20.889 3.428-25.261-1.296-45.68-21.901-46.763-47.171-.994-23.196 14.011-43.046 34.896-49.432-3.467-7.136-5.268-15.231-4.894-23.78 1.104-25.254 21.516-45.835 46.761-47.13 7.406-.38 14.478.872 20.89 3.428-18.237 7.269-31.125 25.087-31.125 45.917 0 3.549.374 7.011 1.086 10.347 1.354 6.353-1.57 12.769-7.134 16.121-14.352 8.646-23.952 24.379-23.952 42.355-.001 20.829 12.888 38.648 31.124 45.917z"
          data-original="#e1ebf0"
          class=""></path>
    <path fill="#ebae56"
          d="m290.531 497.745 14.799-187.893h62.042l12.165 154.452c-26.684 16.566-56.786 28.146-89.006 33.441z"
          data-original="#ebae56"></path>
    <path fill="#fbc56d"
          d="m313.61 492.794 14.409-182.942h39.353l12.165 154.452a243.601 243.601 0 0 1-65.927 28.49z"
          data-original="#fbc56d"></path>
    <path fill="#495959"
          d="M292.341 29.412c0 16.244-13.168 29.412-29.412 29.412s-29.412-13.168-29.412-29.412S246.686 0 262.929 0c16.244 0 29.412 13.168 29.412 29.412zm31.932 32.098c-10.629 0-19.245 8.616-19.245 19.245S313.644 100 324.273 100s19.245-8.616 19.245-19.245-8.617-19.245-19.245-19.245zm-111.65 138.484C208.231 222.785 188.179 240 164.106 240c-24.417 0-44.697-17.711-48.696-40.987-22.559-4.574-39.54-24.516-39.54-48.425 0-14.357 6.123-27.283 15.9-36.311-11.323-12.136-18.252-28.427-18.252-46.336C73.518 30.418 103.936 0 141.459 0S209.4 30.418 209.4 67.941c0 2.912-.183 5.78-.539 8.596a63.026 63.026 0 0 1 2.892-.066c34.112 0 61.765 27.653 61.765 61.765 0 33.821-27.184 61.292-60.895 61.758z"
          data-original="#495959"
          class=""></path>
    <path fill="#607882"
          d="M292.341 29.412c0 3.846-.738 7.519-2.081 10.886-2.85.92-5.89 1.417-9.046 1.417-16.244 0-29.412-13.168-29.412-29.412 0-3.845.738-7.519 2.081-10.885 2.85-.92 5.89-1.417 9.046-1.417 16.244-.001 29.412 13.167 29.412 29.411zm31.931 32.098c-1.321 0-2.612.133-3.858.387a19.313 19.313 0 0 0-.387 3.858c0 10.629 8.616 19.245 19.245 19.245 1.322 0 2.612-.133 3.858-.387.254-1.247.387-2.537.387-3.858.001-10.629-8.616-19.245-19.245-19.245zm-50.754 76.725c0-34.112-27.653-61.765-61.765-61.765-.969 0-1.933.022-2.892.066a68.68 68.68 0 0 0 .539-8.596c0-30.382-19.942-56.105-47.45-64.796-27.508 8.691-47.45 34.415-47.45 64.796 0 13.432 3.898 25.953 10.624 36.494 3.71 5.814 3.577 13.322-.206 19.089a49.178 49.178 0 0 0-8.065 27.064c0 23.909 16.981 43.851 39.54 48.425 2.802 16.308 13.596 29.883 28.205 36.55 14.315-6.533 24.967-19.7 28.026-35.57 33.71-.464 60.894-27.935 60.894-61.757z"
          data-original="#607882"
          class=""></path>
    <path fill="#495959"
          d="M134.5 40c0 5.523-4.477 10-10 10s-10-4.477-10-10 4.477-10 10-10 10 4.477 10 10zm40 20c-5.523 0-10 4.477-10 10s4.477 10 10 10 10-4.477 10-10-4.477-10-10-10zm-10 30c-5.523 0-10 4.477-10 10s4.477 10 10 10 10-4.477 10-10-4.477-10-10-10zm-10 60c-5.523 0-10 4.477-10 10s4.477 10 10 10 10-4.477 10-10-4.477-10-10-10zm-30-20c-5.523 0-10 4.477-10 10s4.477 10 10 10 10-4.477 10-10-4.477-10-10-10z"
          data-original="#495959"
          class=""></path>
    <path fill="#f7e6b0"
          d="m84.162 409.473 21.299-204.116h61.941l21.313 204.246a6.374 6.374 0 0 1-3.6 6.419l-95.941-.933a5.088 5.088 0 0 1-5.012-5.616z"
          data-original="#f7e6b0"></path>
    <path fill="#fff5f5"
          d="m131.066 408.956 21.245-203.599h81.263l21.261 203.746a2.312 2.312 0 0 1-2.351 2.552z"
          data-original="#fff5f5"></path>
    <path fill="#ce9047"
          d="M295.448 323.494V315c0-8.284 6.716-15 15-15h51.807c8.284 0 15 6.716 15 15v8.494c0 8.284-6.716 15-15 15h-51.807c-8.284 0-15-6.716-15-15zM376.352 380h-80c-5.523 0-10 4.477-10 10 0 5.522 4.477 10 10 10h80c5.523 0 10-4.478 10-10 0-5.523-4.477-10-10-10z"
          data-original="#ce9047"></path>
    <path fill="#dca050"
          d="M314.448 323.494V315c0-8.284 6.716-15 15-15h32.807c8.284 0 15 6.716 15 15v8.494c0 8.284-6.716 15-15 15h-32.807c-8.284 0-15-6.716-15-15zM376.352 380h-61c-5.523 0-10 4.477-10 10 0 5.522 4.477 10 10 10h61c5.523 0 10-4.478 10-10 0-5.523-4.477-10-10-10z"
          data-original="#dca050"></path>
    <path fill="#c92e43"
          d="M148.756 250h-48.703c-8.284 0-15-6.716-15-15v-30c0-8.284 6.716-15 15-15h48.703c8.284 0 15 6.716 15 15v30c0 8.284-6.716 15-15 15zm5.744 110c0-5.523-4.477-10-10-10H84.518c-5.523 0-10 4.477-10 10s4.477 10 10 10H144.5c5.523 0 10-4.477 10-10z"
          data-original="#c92e43"></path>
    <path fill="#ea5569"
          d="M238.982 250H138.518c-8.284 0-15-6.716-15-15v-30c0-8.284 6.716-15 15-15h100.464c8.284 0 15 6.716 15 15v30c0 8.284-6.716 15-15 15zm25.536 110c0-5.523-4.477-10-10-10h-121c-5.523 0-10 4.477-10 10s4.477 10 10 10h121c5.522 0 10-4.477 10-10z"
          data-original="#ea5569"></path>
    <path fill="#f48996"
          d="M125.233 466.598a245.927 245.927 0 0 1-43.581-33.072l2.564-24.57h47.929a4.855 4.855 0 0 1 4.855 4.855v46.148c0 6.038-6.58 9.731-11.767 6.639z"
          data-original="#f48996"></path>
    <path fill="#f7a4ae"
          d="M131.066 408.956H254.82l9.564 91.657c-4.596.257-9.225.387-13.884.387-45.844 0-88.746-12.591-125.438-34.504z"
          data-original="#f7a4ae"></path></g></svg>
