<svg xmlns="http://www.w3.org/2000/svg"
     version="1.1"
     width="512"
     height="512"
     x="0"
     y="0"
     viewBox="0 0 510 510"
     style="enable-background:new 0 0 512 512"
     xml:space="preserve"
     class="">
  <g>
    <path fill="#4e5f7f"
          d="M0 255c0 140.074 113.209 255 255 255l90-257.206L255 0C114.925 0 0 113.209 0 255z"
          class=""></path>
    <path fill="#3d4665"
          d="M510 255C510 114.926 396.791 0 255 0v510c140.073 0 255-113.21 255-255z"
          class=""></path>
    <path fill="#3d4665"
          d="M30 255c0 124.062 100.931 225 225 225l90-227.206L255 30C130.938 30 30 130.932 30 255z"
          class=""></path>
    <path fill="#2e304c"
          d="M480 255c0-124.062-100.931-225-225-225v450c124.062 0 225-100.931 225-225z"
    ></path>
    <path fill="#e4f0fd"
          d="M60 255c0 107.527 87.486 195 195 195l75.939-200.076L255 60C147.479 60 60 147.474 60 255z"
          class=""></path>
    <path fill="#cadbfd"
          d="M450 255c0-107.52-87.474-195-195-195v390c107.52 0 195-87.474 195-195z"
          class=""></path>
    <path fill="#d12460"
          d="M359.472 169.596C390.109 207.004 397.64 256.53 382.288 300h31.474c15.8-55.664 1.426-116.335-39.855-159.273a258833.21 258833.21 0 0 0-14.435 28.869z"
    ></path>
    <path fill="#fdd82e"
          d="m159.521 120.502 13.615 27.229C196.48 129.873 225.003 120 255 120l15-15-15-15c-34.742 0-67.838 10.822-95.479 30.502z"
          class=""></path>
    <path fill="#fbbd00"
          d="M350.479 120.502C322.846 100.828 289.751 90 255 90v30c29.982 0 58.509 9.864 81.864 27.731l13.615-27.229z"
    ></path>
    <path fill="#2ef2b1"
          d="m136.093 140.727 14.435 28.87c-30.693 37.478-38.136 87.022-22.816 130.403H96.238c-15.8-55.664-1.427-116.335 39.855-159.273z"
    ></path>
    <path fill="#cadbfd"
          d="M164.053 307.486 177.082 330h-69.031c27.591 53.84 83.455 90 146.948 90l15-135-15-135c-80.334 0-131.492 87.428-90.946 157.486z"

          class=""></path>
    <path fill="#97b9fd"
          d="M401.948 330h-69.029l13.027-22.513C386.582 237.269 335.16 150 255 150v270c63.473 0 119.348-36.141 146.948-90z"

          class=""></path>
    <path fill="#e4f0fd"
          d="M240 195v64.023L247.234 270 255 255l10.5-30-10.5-30h-15z"

          class=""></path>
    <path fill="#cadbfd"
          d="M270 195h-15v60l7.766 15L270 259.023V195z"

          class=""></path>
    <path fill="#ff8848"
          d="M233.787 306.213C239.216 311.643 246.716 315 255 315l15-30-15-30c-26.81 0-39.94 32.486-21.213 51.213z"
    ></path>
    <path fill="#ff4c4c"
          d="M285 285c0-16.568-13.431-30-30-30v60c16.568 0 30-13.431 30-30z"
    >

    </path>
  </g>
</svg>
