<?xml version="1.0" encoding="UTF-8" standalone="no"?>
<svg
   version="1.1"
   width="512"
   height="512"
   x="0"
   y="0"
   viewBox="0 0 510 510"
   style="enable-background:new 0 0 512 512"
   xml:space="preserve"
   class=""
   id="svg8033"
   sodipodi:docname="pressure.svg"
   inkscape:version="1.2.2 (732a01da63, 2022-12-09, custom)"
   xmlns:inkscape="http://www.inkscape.org/namespaces/inkscape"
   xmlns:sodipodi="http://sodipodi.sourceforge.net/DTD/sodipodi-0.dtd"
   xmlns="http://www.w3.org/2000/svg"
   xmlns:svg="http://www.w3.org/2000/svg"><defs
   id="defs8037" /><sodipodi:namedview
   id="namedview8035"
   pagecolor="#505050"
   bordercolor="#eeeeee"
   borderopacity="1"
   inkscape:showpageshadow="0"
   inkscape:pageopacity="0"
   inkscape:pagecheckerboard="0"
   inkscape:deskcolor="#505050"
   showgrid="false"
   inkscape:zoom="0.82519531"
   inkscape:cx="210.85917"
   inkscape:cy="382.93964"
   inkscape:window-width="1846"
   inkscape:window-height="1011"
   inkscape:window-x="74"
   inkscape:window-y="32"
   inkscape:window-maximized="1"
   inkscape:current-layer="svg8033" />
  
<g
   id="g18948"><g
     id="g8031"
     transform="matrix(0.88907461,0,0,0.88907461,28.285976,28.285976)">
    <path
   fill="#4e5f7f"
   d="M 0,255 C 0,395.074 113.209,510 255,510 L 345,252.794 255,0 C 114.925,0 0,113.209 0,255 Z"
   class=""
   id="path7999" />
    <path
   fill="#3d4665"
   d="M 510,255 C 510,114.926 396.791,0 255,0 v 510 c 140.073,0 255,-113.21 255,-255 z"
   class=""
   id="path8001" />
    <path
   fill="#3d4665"
   d="m 30,255 c 0,124.062 100.931,225 225,225 L 345,252.794 255,30 C 130.938,30 30,130.932 30,255 Z"
   class=""
   id="path8003" />
    <path
   fill="#2e304c"
   d="M 480,255 C 480,130.938 379.069,30 255,30 v 450 c 124.062,0 225,-100.931 225,-225 z"
   id="path8005" />
    <path
   fill="#e4f0fd"
   d="m 60,255 c 0,107.527 87.486,195 195,195 L 330.939,249.924 255,60 C 147.479,60 60,147.474 60,255 Z"
   class=""
   id="path8007" />
    <path
   fill="#cadbfd"
   d="M 450,255 C 450,147.48 362.526,60 255,60 v 390 c 107.52,0 195,-87.474 195,-195 z"
   class=""
   id="path8009" />
    <path
   fill="#d12460"
   d="M 359.472,169.596 C 390.109,207.004 397.64,256.53 382.288,300 h 31.474 c 15.8,-55.664 1.426,-116.335 -39.855,-159.273 a 258833.21,258833.21 0 0 0 -14.435,28.869 z"
   id="path8011" />
    <path
   fill="#fdd82e"
   d="m 159.521,120.502 13.615,27.229 C 196.48,129.873 225.003,120 255,120 l 15,-15 -15,-15 c -34.742,0 -67.838,10.822 -95.479,30.502 z"
   class=""
   id="path8013" />
    <path
   fill="#fbbd00"
   d="M 350.479,120.502 C 322.846,100.828 289.751,90 255,90 v 30 c 29.982,0 58.509,9.864 81.864,27.731 z"
   id="path8015" />
    <path
   fill="#2ef2b1"
   d="m 136.093,140.727 14.435,28.87 C 119.835,207.075 112.392,256.619 127.712,300 H 96.238 c -15.8,-55.664 -1.427,-116.335 39.855,-159.273 z"
   id="path8017" />
    <path
   fill="#cadbfd"
   d="M 164.053,307.486 177.082,330 h -69.031 c 27.591,53.84 83.455,90 146.948,90 l 15,-135 -15,-135 c -80.334,0 -131.492,87.428 -90.946,157.486 z"
   class=""
   id="path8019" />
    <path
   fill="#97b9fd"
   d="m 401.948,330 h -69.029 l 13.027,-22.513 C 386.582,237.269 335.16,150 255,150 v 270 c 63.473,0 119.348,-36.141 146.948,-90 z"
   class=""
   id="path8021" />
    <path
   fill="#e4f0fd"
   d="m 240,195 v 64.023 L 247.234,270 255,255 265.5,225 255,195 Z"
   class=""
   id="path8023" />
    <path
   fill="#cadbfd"
   d="m 270,195 h -15 v 60 l 7.766,15 7.234,-10.977 z"
   class=""
   id="path8025" />
    <path
   fill="#ff8848"
   d="M 233.787,306.213 C 239.216,311.643 246.716,315 255,315 l 15,-30 -15,-30 c -26.81,0 -39.94,32.486 -21.213,51.213 z"
   id="path8027" />
    <path
   fill="#ff4c4c"
   d="m 285,285 c 0,-16.568 -13.431,-30 -30,-30 v 60 c 16.568,0 30,-13.431 30,-30 z"
   id="path8029">

    </path>
  </g><g
     aria-label="P"
     id="text8269"
     style="font-size:338.875px;line-height:1.65;font-family:Timmana;-inkscape-font-specification:Timmana;fill:#d49e00;fill-opacity:1;stroke:#d49e00;stroke-width:6.96911;stroke-dasharray:none;stroke-opacity:1"
     transform="matrix(0.99757455,0,0,0.99757455,-2.4475485,7.0569065)"><path
       d="m 402.94553,305.20304 q -3.16283,0 -6.32566,0 -3.16284,0 -6.7775,0.45183 l -10.844,74.5525 h 12.1995 q 6.32566,0 12.1995,-1.80733 5.87383,-2.25917 10.39216,-6.32567 4.51834,-4.51833 7.68117,-11.74766 3.16283,-7.22934 4.97017,-18.07334 4.97016,-37.05033 -23.49534,-37.05033 z m -50.60533,-31.1765 q 3.61467,0 9.4885,0 6.32567,-0.45183 13.555,-0.45183 7.68117,-0.45184 15.36233,-0.45184 8.133,-0.45183 15.36234,-0.45183 39.76133,0 54.22,17.6215 14.9105,17.6215 9.4885,51.96083 -2.711,19.42884 -9.94034,32.98384 -7.22933,13.10316 -18.07333,21.688 -10.844,8.133 -24.399,11.74766 -13.10317,3.16284 -28.01367,3.16284 -3.61466,0 -7.22933,0 -3.61467,0 -7.22933,-0.45184 l -9.4885,67.775 h -42.0205 z"
       id="path11383"
       style="fill:#d49e00;fill-opacity:1;stroke:#d49e00;stroke-width:6.96911;stroke-dasharray:none;stroke-opacity:1" /></g></g></svg>
