<svg xmlns="http://www.w3.org/2000/svg"
     version="1.1"
     width="512"
     height="512"
     x="0"
     y="0"
     viewBox="0 0 512 512"
     style="enable-background:new 0 0 512 512"
     xml:space="preserve"
     class="">
  <g>
    <g fill="#e0e5f5">
      <path d="M63.965 144.198a7.5 7.5 0 0 1-7.501-7.501V68.279a7.5 7.5 0 0 1 7.501-7.501h68.419c4.143 0 7.501 3.358 7.501 7.501s-3.358 7.501-7.501 7.501H71.466v60.918a7.5 7.5 0 0 1-7.501 7.5zM448.035 144.198a7.5 7.5 0 0 1-7.501-7.501V75.78h-60.918c-4.143 0-7.501-3.358-7.501-7.501s3.358-7.501 7.501-7.501h68.419a7.5 7.5 0 0 1 7.501 7.501v68.419a7.501 7.501 0 0 1-7.501 7.5zM448.035 460.177h-68.419c-4.143 0-7.501-3.358-7.501-7.501s3.358-7.501 7.501-7.501h60.918v-60.918c0-4.143 3.358-7.501 7.501-7.501s7.501 3.358 7.501 7.501v68.419a7.501 7.501 0 0 1-7.501 7.501zM132.385 460.177h-68.42a7.5 7.5 0 0 1-7.501-7.501v-68.419c0-4.143 3.358-7.501 7.501-7.501s7.501 3.358 7.501 7.501v60.918h60.918c4.143 0 7.501 3.358 7.501 7.501s-3.357 7.501-7.5 7.501z"
            fill="#e0e5f5"

            class=""></path></g>
    <path fill="#ffebde"
          d="M257.667 427.982c-47.448 0-86.05-38.552-86.05-85.94 0-18.897 6.046-36.841 17.485-51.891a86.443 86.443 0 0 1 17.743-17.395c2.61-1.911 4.1-4.991 4.1-8.222V140.405c0-25.544 20.24-46.939 45.82-47.423 26.173-.495 47.623 20.625 47.623 46.654v124.897c0 3.231 1.49 6.312 4.1 8.222a86.443 86.443 0 0 1 17.743 17.395c11.439 15.051 17.485 32.995 17.485 51.891 0 47.388-38.602 85.941-86.049 85.941z"
    ></path>
    <path fill="#f7dfd0"
          d="M326.231 290.151a86.443 86.443 0 0 0-17.743-17.395c-2.609-1.91-4.1-4.994-4.1-8.227V139.636c0-26.029-21.45-47.149-47.623-46.654a45.697 45.697 0 0 0-19.02 4.535c15.737 7.515 26.639 23.566 26.639 42.118v202.406h39.328c0 40.509-28.218 74.538-66.047 83.571a85.988 85.988 0 0 0 20.002 2.369c47.448 0 86.05-38.552 86.05-85.94-.001-18.896-6.047-36.84-17.486-51.89z"

          class=""></path>
    <path fill="#ff9626"
          d="M273.241 289.46v-89.908c0-8.59-6.973-15.554-15.574-15.554s-15.574 6.964-15.574 15.554v89.908c-22.711 6.721-39.328 27.748-39.328 52.581 0 30.234 24.629 54.832 54.902 54.832s54.902-24.597 54.902-54.832c0-24.832-16.617-45.859-39.328-52.581z"
    ></path>
    <path fill="#ff8fb4"
          d="M324.191 504.499H191.142l15.536-30.123a25.928 25.928 0 0 1 23.048-14.033h55.881a25.931 25.931 0 0 1 23.048 14.033z"
    ></path>
    <path fill="#fa7aa5"
          d="M308.655 474.376a25.928 25.928 0 0 0-23.048-14.033h-40.005a25.931 25.931 0 0 1 23.048 14.033l15.536 30.123h40.005z"
    ></path>
    <path fill="#e66590"
          d="M340.577 496.998H174.756c-4.143 0-7.501 3.358-7.501 7.501s3.358 7.501 7.501 7.501h165.821c4.143 0 7.501-3.358 7.501-7.501s-3.357-7.501-7.501-7.501z"
    ></path>
    <g fill="#c7cbd9"><path d="M281.818 67.561c-13.316-13.295-34.982-13.296-48.302 0a7.502 7.502 0 0 1-10.599-10.617c19.162-19.131 50.341-19.129 69.499 0 2.951 2.946 2.647 7.808-.079 10.416-4.587 4.39-9.055 1.663-10.519.201z" fill="#c7cbd9"  class=""></path>
      <path d="M309.134 36.244c-28.381-28.335-74.556-28.334-102.935 0A7.5 7.5 0 1 1 195.6 25.628c34.225-34.171 89.912-34.169 124.133 0 2.901 2.896 2.686 7.664.047 10.272-4.655 4.6-9.182 1.806-10.646.344z"
            fill="#c7cbd9"

            class=""></path>
    </g>
  </g>
</svg>
