<?xml version="1.0" encoding="UTF-8" standalone="no"?>
<svg
   version="1.1"
   width="512"
   height="512"
   x="0"
   y="0"
   viewBox="0 0 512 512"
   xml:space="preserve"
   class=""
   id="svg48"
   sodipodi:docname="aqi.svg"
   inkscape:version="1.2.2 (732a01da63, 2022-12-09, custom)"
   xmlns:inkscape="http://www.inkscape.org/namespaces/inkscape"
   xmlns:sodipodi="http://sodipodi.sourceforge.net/DTD/sodipodi-0.dtd"
   xmlns="http://www.w3.org/2000/svg"
   xmlns:svg="http://www.w3.org/2000/svg"><defs
   id="defs52">
    
    
    
    
    
    
    
    
    
    
    
    
    
    
  </defs><sodipodi:namedview
   id="namedview50"
   pagecolor="#505050"
   bordercolor="#eeeeee"
   borderopacity="1"
   inkscape:showpageshadow="0"
   inkscape:pageopacity="0"
   inkscape:pagecheckerboard="0"
   inkscape:deskcolor="#505050"
   showgrid="false"
   inkscape:zoom="1.6503906"
   inkscape:cx="213.88876"
   inkscape:cy="204.19408"
   inkscape:window-width="1846"
   inkscape:window-height="1011"
   inkscape:window-x="74"
   inkscape:window-y="32"
   inkscape:window-maximized="1"
   inkscape:current-layer="svg48"
   showguides="true"
   inkscape:lockguides="false" />
  
<g
   id="g40596"
   transform="matrix(1.0633805,0,0,1.0633805,-23.867943,-16.072584)"><g
     id="g36167"
     transform="matrix(1.1263263,0,0,1.1263263,-33.247443,-22.23816)"><path
       fill="#eff6ff"
       fill-rule="evenodd"
       d="m 225.72045,290.02114 h 185.7753 c 29.59544,0 53.5522,-30.41858 53.5522,-53.57769 0,-23.13444 -7.64679,-31.62904 -19.64943,-41.45417 6.53336,-34.65355 -22.69861,-59.60368 -50.35829,-49.65767 -1.06491,-53.602365 -71.02412,-78.769588 -109.16104,-40.70339 -9.43781,-12.027312 -24.12616,-19.746466 -40.60553,-19.746466 -7.52591,0 -14.64065,1.596953 -21.07698,4.476731 -15.29358,6.848313 -26.6433,20.884565 -29.74017,37.823615 -27.17534,-0.77463 -50.57538,17.39955 -55.72971,44.86599 -1.06491,5.80807 -1.35519,12.00264 -0.6776,18.53682 -15.51149,9.3893 -25.86866,21.34424 -25.86866,45.85854 0,4.28348 0.72611,8.68785 2.10515,13.06755 23.49626,20.15845 58.29454,62.60434 111.43476,40.51014 z"
       clip-rule="evenodd"
       class=""
       id="path26"
       style="fill:#ffffff;fill-opacity:1;stroke-width:0.822324" /><path
       fill="#eff6ff"
       fill-rule="evenodd"
       d="m 154.71003,182.41033 c 46.63152,19.86817 125.6404,-36.29902 85.4707,-82.689607 -5.56549,-11.688512 -17.20548,-19.940532 -30.82975,-20.666644 -5.22751,-13.576567 -18.41594,-23.207625 -33.8304,-23.207625 -16.86669,0 -31.02299,11.494443 -35.06389,27.103796 a 36.092618,36.092618 0 0 0 -16.43086,-3.944688 c -20.01289,0 -36.225826,16.237608 -36.225826,36.251328 0,3.79914 0.58056,7.45355 1.64547,10.89004 -15.462979,-8.2e-4 -28.119366,12.65556 -28.119366,28.11936 0,15.48765 12.656387,28.14404 28.119366,28.14404 z"
       clip-rule="evenodd"
       class=""
       id="path28"
       style="fill:#ffffff;fill-opacity:1;stroke-width:0.822324" /></g><path
     fill="#d9eeff"
     d="m 393.40298,333.70545 h -94.54586 a 6.353275,6.353275 0 1 1 0,-12.70655 h 94.54586 c 3.45212,0 6.68714,-1.33299 9.10642,-3.75308 5.02933,-5.02852 5.02933,-13.20982 0,-18.23833 a 12.79536,12.79536 0 0 0 -9.10642,-3.77857 12.79536,12.79536 0 0 0 -9.10641,3.77775 6.3540968,6.3540968 0 0 1 -8.98636,-8.98471 c 4.83527,-4.83609 11.26091,-7.50042 18.09277,-7.50042 6.83105,0 13.25669,2.66269 18.09277,7.4996 9.98302,9.98383 9.98302,26.22637 0,36.21021 -4.82128,4.81964 -11.2461,7.4741 -18.09277,7.4741 z m -45.6398,29.59626 h -64.36904 a 6.353275,6.353275 0 1 1 0,-12.70655 h 64.36904 a 6.353275,6.353275 0 1 1 0,12.70655 z m 78.18656,68.04977 c -6.86147,0 -13.29204,-2.66844 -18.10675,-7.5144 a 6.3537653,6.3537653 0 1 1 9.01432,-8.95675 c 2.41187,2.42668 5.64032,3.76296 9.09243,3.76296 3.45212,0 6.68138,-1.3371 9.09244,-3.76296 2.4571,-2.44888 3.79831,-5.68061 3.79831,-9.12286 0,-3.4406 -1.34121,-6.67316 -3.77693,-9.09984 -2.44313,-2.44312 -5.6765,-3.78433 -9.11382,-3.78433 H 392.0223 a 6.3524521,6.3524521 0 0 1 -6.35327,-6.35327 6.3524521,6.3524521 0 0 1 6.35327,-6.35328 h 33.92744 c 6.83187,0 13.25668,2.66269 18.09277,7.49877 4.83691,4.82211 7.50535,11.25022 7.50535,18.09277 0,6.84338 -2.66762,13.27149 -7.51275,18.10017 -4.79333,4.82376 -11.2239,7.49302 -18.08537,7.49302 z m -66.4742,-38.47736 H 331.4047 a 6.3524521,6.3524521 0 0 1 -6.35328,-6.35327 6.3524521,6.3524521 0 0 1 6.35328,-6.35328 h 28.07084 c 3.50968,0 6.35328,2.84442 6.35328,6.35328 0,3.50885 -2.8436,6.35327 -6.35328,6.35327 z"
     class=""
     id="path42"
     style="fill:#9fd4fe;fill-opacity:1;stroke-width:0.822324" /><g
     id="g35435"><path
       fill="#ffd772"
       fill-rule="evenodd"
       d="m 219.16241,427.98324 19.5047,-2.51713 2.54098,-19.5047 -20.6173,-20.59346 -19.43234,1.81487 -2.58867,20.20614 z"
       clip-rule="evenodd"
       id="path18"
       style="stroke-width:0.822324" /><g
       id="g35423"><path
         fill="#935d38"
         fill-rule="evenodd"
         d="m 241.20809,405.96141 -22.04486,22.02183 33.97514,33.97596 c 6.07368,6.07368 15.97117,6.07368 22.04486,0 6.04983,-6.04984 6.04983,-15.94733 0,-22.02183 z"
         clip-rule="evenodd"
         id="path20"
         style="stroke-width:0.822324" /><path
         fill="#fbba58"
         fill-rule="evenodd"
         d="m 209.57987,396.37887 20.59346,20.59346 11.03476,-11.01092 -20.6173,-20.59346 z"
         clip-rule="evenodd"
         id="path22"
         style="stroke-width:0.822324" /><path
         fill="#7f4d2a"
         fill-rule="evenodd"
         d="m 241.20809,405.96141 -11.03476,11.01092 33.9998,33.97595 c 4.0409,4.06557 5.37225,9.84898 4.01706,15.05182 a 15.464623,15.464623 0 0 0 6.99386,-4.04172 c 6.04984,-6.04984 6.04984,-15.94733 0,-22.02184 z"
         clip-rule="evenodd"
         id="path24"
         style="stroke-width:0.822324" /><path
         fill="#375e7d"
         fill-rule="evenodd"
         d="m 220.59079,385.36795 c 19.89119,-28.31343 21.60985,-65.53263 5.13048,-95.34599 -3.99321,-7.23562 -9.07435,-14.03542 -15.19655,-20.15844 -26.01421,-26.01422 -64.0064,-32.79017 -96.23903,-20.3517 a 90.037888,90.037888 0 0 0 -31.216239,20.3517 c -35.185595,35.18641 -35.185595,92.27296 0,127.45938 31.434149,31.43497 80.340219,34.77443 115.501149,10.06689 z"
         clip-rule="evenodd"
         id="path30"
         style="stroke-width:0.822324" /><path
         fill="#9fd4fe"
         fill-rule="evenodd"
         d="m 208.87843,333.48425 c 0,-34.17003 -27.70738,-61.87823 -61.87658,-61.87823 -34.19305,0 -61.876589,27.7082 -61.876589,61.87823 0,34.19387 27.683539,61.87823 61.876589,61.87823 34.16838,0 61.87658,-27.68436 61.87658,-61.87823 z"
         clip-rule="evenodd"
         id="path32"
         style="stroke-width:0.822324" /><path
         fill="#2b4d66"
         fill-rule="evenodd"
         d="m 196.39144,296.2412 c 7.84086,10.35717 12.48699,23.25614 12.48699,37.24305 0,30.73353 -22.40833,56.23955 -51.76118,61.05508 l -11.27653,11.27735 a 89.603701,89.603701 0 0 1 -27.97381,13.14074 c 26.73951,9.05049 56.86781,5.17899 80.70369,-11.56763 l 22.02101,-22.02184 c 19.89119,-28.31343 21.60985,-65.53263 5.13048,-95.34599 -3.99321,-7.23562 -9.07434,-14.03542 -15.19655,-20.15844 -23.69033,-23.71583 -57.32748,-31.43498 -87.52733,-23.20763 12.72875,4.28349 24.68287,11.49444 34.82213,21.63452 a 102.59477,102.59477 0 0 1 4.93641,5.34839 c 13.59795,3.58122 25.38267,11.66385 33.63469,22.6024 z"
         clip-rule="evenodd"
         class=""
         id="path36"
         style="stroke-width:0.822324" /><path
         fill="#85beef"
         fill-rule="evenodd"
         d="m 208.87843,333.48425 c 0,-13.98773 -4.64613,-26.88588 -12.48699,-37.24305 -8.25202,-10.93855 -20.03674,-19.02118 -33.63634,-22.6024 a 88.908015,88.908015 0 0 1 10.23629,14.81006 85.846504,85.846504 0 0 1 2.29922,4.45288 c 13.98691,29.01488 11.51829,63.98338 -7.42887,90.89393 l -10.74449,10.74448 c 29.35285,-4.81635 51.76118,-30.32319 51.76118,-61.0559 z"
         clip-rule="evenodd"
         id="path38"
         style="stroke-width:0.822324" /><path
         fill="#beb9dd"
         d="m 214.68568,438.81407 a 6.3540968,6.3540968 0 0 1 -4.49153,-10.84892 l 30.176,-30.15297 a 6.3543134,6.3543134 0 0 1 8.98306,8.98964 l -30.176,30.15298 a 6.3376503,6.3376503 0 0 1 -4.49153,1.85927 z"
         id="path44"
         style="stroke-width:0.822324">

    </path></g></g><g
     id="g39827"
     transform="matrix(0.78696055,0,0,0.78696055,56.165469,41.212459)"><path
       d="m 174.99388,189.4269 h 27.10527 l -13.51093,-37.44697 z m 32.77652,-45.53684 q 0,0 26.60486,73.72632 2.16843,6.00485 -1.58462,11.1757 -3.75303,5.25425 -10.0081,5.25425 h -1.83481 q -4.00324,0 -7.42267,-2.50202 -3.41944,-2.41863 -4.08665,-6.08827 l -4.33683,-20.68339 h -31.60891 l -4.00324,20.4332 q -0.7506,4.00324 -4.25344,6.42185 -3.58624,2.41863 -8.34008,2.41863 h -1.83482 q -6.25506,0 -9.9247,-5.25425 -3.66963,-5.17085 -1.66801,-11.1757 l 25.27045,-73.39272 q 2.16842,-6.33846 7.50606,-10.0915 5.33766,-3.75303 10.84211,-3.75303 h 2.33522 q 5.42105,0 10.75871,3.75303 5.42106,3.75304 7.58947,9.7579 z"
       id="path34410"
       style="font-size:145.643px;line-height:1.25;font-family:Dyuthi;-inkscape-font-specification:Dyuthi;fill:#2b4d66;stroke-width:1.31387" /><path
       d="m 262.43614,182.25442 q 0.1668,20.09961 8.67368,30.1911 8.50688,10.0081 20.6834,10.0081 12.17652,0 20.6834,-10.0081 8.59029,-10.09149 8.59029,-30.1911 0,-20.09959 -8.59029,-30.10768 -8.50688,-10.09151 -20.6834,-10.09151 -12.17652,0 -20.6834,10.09151 -8.50688,10.00809 -8.67368,30.10768 z m 30.60809,54.46073 h -2.58543 q -0.7506,0 -2.33522,-0.2502 -26.02105,-2.75223 -38.94818,-16.59675 -12.92712,-13.84454 -12.92712,-37.11337 0,-23.26882 14.42834,-37.94737 14.42834,-14.59514 37.44696,-16.76355 3.16923,-0.33361 4.08664,-0.25021 0.83401,0 3.08584,0.25021 23.76922,3.08582 37.02996,16.51336 14.92874,15.09554 14.84534,39.19837 0,30.27449 -23.10202,44.45263 l 7.58947,11.59272 q 2.75222,4.25344 1.66801,9.25749 -1.08421,5.00404 -5.33765,7.75627 v 0.33361 q -4.25344,2.75222 -9.42429,1.66801 -9.75789,-2.16842 -11.67611,-9.75789 l -3.33603,-13.09393 z"
       id="path34412"
       style="font-size:145.643px;line-height:1.25;font-family:Dyuthi;-inkscape-font-specification:Dyuthi;fill:#2b4d66;stroke-width:1.31387" /><path
       d="m 384.51572,222.28681 q 0,5.08745 -3.58623,8.75709 -3.58624,3.66964 -8.75709,3.66964 h -0.25021 q -5.17084,0 -8.84048,-3.58623 -3.66964,-3.66964 -3.66964,-8.8405 v -81.64939 q 0,-5.17085 3.66964,-8.84048 3.66964,-3.66964 8.84048,-3.66964 h 0.25021 q 5.00404,0 8.67368,3.58624 3.66964,3.58623 3.66964,8.92388 z"
       id="path34414"
       style="font-size:145.643px;line-height:1.25;font-family:Dyuthi;-inkscape-font-specification:Dyuthi;fill:#2b4d66;stroke-width:1.31387" /></g></g></svg>
