<?xml version="1.0" encoding="UTF-8" standalone="no"?>
<svg
   version="1.1"
   width="512"
   height="512"
   x="0"
   y="0"
   viewBox="0 0 512 512"
   style="enable-background:new 0 0 512 512"
   xml:space="preserve"
   class=""
   id="svg8103"
   sodipodi:docname="humidity.svg"
   inkscape:version="1.2.2 (732a01da63, 2022-12-09, custom)"
   xmlns:inkscape="http://www.inkscape.org/namespaces/inkscape"
   xmlns:sodipodi="http://sodipodi.sourceforge.net/DTD/sodipodi-0.dtd"
   xmlns="http://www.w3.org/2000/svg"
   xmlns:svg="http://www.w3.org/2000/svg"><defs
     id="defs8107" /><sodipodi:namedview
     id="namedview8105"
     pagecolor="#505050"
     bordercolor="#eeeeee"
     borderopacity="1"
     inkscape:showpageshadow="0"
     inkscape:pageopacity="0"
     inkscape:pagecheckerboard="0"
     inkscape:deskcolor="#505050"
     showgrid="false"
     inkscape:zoom="1.1670024"
     inkscape:cx="282.77577"
     inkscape:cy="296.48611"
     inkscape:window-width="1846"
     inkscape:window-height="1011"
     inkscape:window-x="74"
     inkscape:window-y="32"
     inkscape:window-maximized="1"
     inkscape:current-layer="svg8103" /><g
     id="g8171"
     transform="matrix(0.9839338,0,0,0.9839338,4.1388564,4.0898338)"><g
       id="g8156"
       transform="matrix(1.0952635,0,0,1.0952635,-4.3278051,3.7189081)"><path
         fill="#1e8aff"
         d="m 335.39654,394.51733 c 1.84481,-1.06164 49.27903,-51.07163 69.98092,-74.71478 1.93183,0.14794 3.85496,-0.83538 4.81217,-2.65409 1.41841,-2.68019 2.77591,-5.38649 4.0725,-8.1363 0.46991,-0.71356 0.68745,-1.15736 0.60914,-1.30529 5.04712,-10.93833 9.11092,-22.42487 12.06087,-34.35522 3.70702,-14.97602 5.68236,-30.60469 5.68236,-46.65975 v -0.009 c 0,-53.42115 -21.6591,-101.77778 -56.66697,-136.794348 -35.00786,-35.007865 -83.37319,-56.658268 -136.79434,-56.658268 -53.42115,0 -101.78648,21.650403 -136.79435,56.658268 C 67.350978,124.90542 45.700575,173.26205 45.700575,226.6832 c 0,53.42985 21.650403,101.78648 56.658265,136.80304 35.00787,35.00787 83.3732,56.65827 136.79435,56.65827 17.21242,0 33.92012,-2.2625 49.85336,-6.49164 a 192.26045,192.26045 0 0 0 46.38999,-19.13554 z m -12.63521,-22.02459 c 1.60986,-0.9224 42.8222,-44.37114 60.80039,-64.9164 1.67077,0.13053 3.35024,-0.72226 4.18563,-2.30601 1.22697,-2.32342 2.41043,-4.68164 3.53298,-7.06597 0.40899,-0.61784 0.60044,-1.00942 0.53082,-1.13125 4.38577,-9.50251 7.91006,-19.48362 10.47712,-29.84762 3.21972,-13.00939 4.934,-26.5931 4.934,-40.53359 v -0.009 c 0,-46.4074 -18.81357,-88.42032 -49.22682,-118.83356 C 327.5822,77.43639 285.56928,58.622817 239.15319,58.622817 c -46.4074,0 -88.42902,18.813573 -118.83356,49.226823 -30.421951,30.41324 -49.226822,72.42616 -49.226822,118.83356 0,46.41609 18.804871,88.42901 49.218122,118.84226 30.41324,30.41325 72.43486,49.22682 118.84226,49.22682 14.94991,0 29.47344,-1.95794 43.3095,-5.63885 a 167.29113,167.29113 0 0 0 40.29864,-16.62069 z"
         data-original="#1e8aff"
         class=""
         id="path8075"
         style="fill-rule:nonzero;stroke-width:0.870193" /><path
         d="m 183.41732,315.89539 c -2.76721,0 -5.01231,2.24509 -5.01231,5.01231 0,2.76721 2.2451,5.01231 5.01231,5.01231 h 111.47173 c 2.76722,0 5.01231,-2.2451 5.01231,-5.01231 0,-2.76722 -2.24509,-5.01231 -5.01231,-5.01231 z m 0,37.81859 c -2.76721,0 -5.01231,2.24509 -5.01231,5.01231 0,2.76721 2.2451,5.01231 5.01231,5.01231 h 111.47173 c 2.76722,0 5.01231,-2.2451 5.01231,-5.01231 0,-2.76722 -2.24509,-5.01231 -5.01231,-5.01231 z"
         fill="#000000"
         data-original="#000000"
         id="path8077"
         style="fill-rule:nonzero;stroke-width:0.870193" /><path
         fill="#ffffff"
         d="m 322.76133,372.49274 c 1.60986,-0.9224 42.8222,-44.37114 60.80039,-64.9164 1.67077,0.13053 3.35024,-0.72226 4.18563,-2.30601 1.22697,-2.32342 2.41043,-4.68164 3.53298,-7.06597 0.40899,-0.61784 0.60044,-1.00942 0.53082,-1.13125 4.38577,-9.50251 7.91006,-19.48362 10.47712,-29.84762 3.21972,-13.00939 4.934,-26.5844 4.934,-40.53359 v -0.009 c 0,-46.4074 -18.81357,-88.42032 -49.22682,-118.83356 C 327.5822,77.43639 285.56928,58.622817 239.15319,58.622817 c -46.4074,0 -88.42032,18.813573 -118.83356,49.226823 -30.421951,30.41324 -49.226822,72.42616 -49.226822,118.83356 0,46.41609 18.804871,88.42901 49.218122,118.84226 30.42194,30.41325 72.43486,49.22682 118.84226,49.22682 14.94991,0 29.47344,-1.95794 43.3095,-5.63885 a 167.29113,167.29113 0 0 0 40.29864,-16.62069 z"
         data-original="#ffffff"
         class=""
         id="path8079"
         style="fill-rule:nonzero;stroke-width:0.870193" /><path
         fill="#ff4e51"
         d="m 239.15319,226.6832 -53.08178,5.01231 c -2.76721,0 -5.01231,-2.2451 -5.01231,-5.01231 0,-16.03766 6.50034,-30.56118 17.01227,-41.08182 10.51194,-10.50323 25.04416,-17.01227 41.08182,-17.01227 16.04636,0 30.56988,6.50904 41.08181,17.01227 10.51193,10.52064 17.02098,25.04416 17.02098,41.08182 0,2.76721 -2.2451,5.01231 -5.01232,5.01231 z"
         data-original="#ff4e51"
         id="path8083"
         style="fill-rule:nonzero;stroke-width:0.870193" /><path
         fill="#bababa"
         d="m 183.41732,278.0855 c -2.76721,0 -5.01231,2.2451 -5.01231,5.01231 0,2.75851 2.2451,5.00361 5.01231,5.00361 h 111.47173 c 2.76722,0 5.01231,-2.2451 5.01231,-5.00361 0,-2.76721 -2.24509,-5.01231 -5.01231,-5.01231 z"
         data-original="#bababa"
         id="path8085"
         style="fill-rule:nonzero;stroke-width:0.870193" /><path
         fill="#e6e6e6"
         d="M 120.31963,107.84964 C 89.897679,138.26288 71.092808,180.2758 71.092808,226.6832 c 0,46.41609 18.804871,88.42901 49.218122,118.84226 30.41324,30.41325 72.43486,49.22682 118.84226,49.22682 7.28351,0 14.46261,-0.4612 21.51117,-1.3662 -27.98541,-3.5852 -53.82144,-14.05362 -75.7503,-29.64748 -2.21029,-1.57505 -4.37707,-3.19361 -6.50905,-4.87308 -5.27337,-4.14212 -10.29438,-8.59751 -15.02823,-13.34006 -30.41325,-30.41325 -49.22682,-72.42617 -49.22682,-118.84226 0,-46.4074 18.81357,-88.42032 49.22682,-118.83356 25.63589,-25.63589 59.5125,-43.031049 97.31369,-47.86062 -7.05727,-0.905001 -14.23636,-1.366203 -21.53728,-1.366203 -46.4074,0 -88.42902,18.813573 -118.83356,49.226823 z"
         data-original="#e6e6e6"
         id="path8089"
         style="stroke-width:0.870193" /><g
         fill-rule="nonzero"
         id="g8099"
         transform="matrix(0.87019303,0,0,0.87019303,33.230709,33.230584)"><path
   fill="#cf3f42"
   d="m 230.88,161.31 c 0,3.18 2.58,5.76 5.76,5.76 3.18,0 5.76,-2.58 5.76,-5.76 v -55.65 c 0,-3.18 -2.58,-5.76 -5.76,-5.76 -3.18,0 -5.76,2.58 -5.76,5.76 z"
   data-original="#cf3f42"
   id="path8091" />
  <g
   fill="#bababa"
   id="g8095"><path
     d="m 72.31,120.8 c -2.02,3.26 -3.94,6.57 -5.76,9.95 l 21.93,12.66 c 2.75,1.59 6.26,0.65 7.85,-2.09 1.59,-2.75 0.66,-6.26 -2.09,-7.85 z m 72.76,-68.57 c -3.37,1.82 -6.69,3.74 -9.94,5.75 l 12.66,21.93 a 5.741,5.741 0 0 0 7.85,2.09 c 2.75,-1.58 3.68,-5.1 2.09,-7.85 z M 242.4,29.27 a 183.442,183.442 0 0 0 -11.52,0 v 25.29 c 0,3.18 2.58,5.76 5.76,5.76 3.18,0 5.76,-2.58 5.76,-5.76 z m 95.76,28.71 c -3.26,-2.01 -6.57,-3.93 -9.95,-5.75 l -12.66,21.92 c -1.59,2.75 -0.65,6.27 2.09,7.85 2.75,1.59 6.26,0.66 7.85,-2.09 z m 68.57,72.77 c -1.82,-3.38 -3.74,-6.69 -5.75,-9.95 l -21.94,12.67 a 5.748,5.748 0 0 0 -2.09,7.85 c 1.59,2.74 5.11,3.68 7.85,2.09 z"
     fill="#bababa"
     data-original="#bababa"
     id="path8093" /></g>
  <path
   fill="#bababa"
   d="m 429.69,228.07 c 0.06,-1.91 0.09,-3.83 0.09,-5.75 v -0.01 c 0,-1.92 -0.03,-3.84 -0.09,-5.75 H 43.59 c -0.05,1.91 -0.08,3.83 -0.08,5.75 0,1.93 0.03,3.85 0.08,5.76 z"
   data-original="#bababa"
   id="path8097" /></g></g><path
       fill="#42c7f4"
       d="m 335.14775,448.10569 c -31.34436,-29.77801 -34.7207,-90.67411 51.50672,-181.60929 0.16534,-0.20014 0.33938,-0.39158 0.53082,-0.57432 2.43654,-2.30602 6.28279,-2.21029 8.58881,0.22625 l -0.009,0.009 c 86.56681,91.14402 83.21656,152.14455 51.8287,181.95736 -14.66275,13.93179 -35.47777,20.89334 -56.22317,20.89334 -20.7454,0 -41.56042,-6.97025 -56.22317,-20.90204 z"
       data-original="#42c7f4"
       id="path8081"
       style="fill-rule:nonzero;stroke-width:0.870193" /></g></svg>
