<svg xmlns="http://www.w3.org/2000/svg"
     version="1.1"
     width="512"
     height="512"
     x="0"
     y="0"
     viewBox="0 0 512 512"
     style="enable-background:new 0 0 512 512"
     xml:space="preserve"
     class="">
  <g>
    <path fill="#00a753"
          d="M512 256c0 141.387-114.613 256-256 256S0 397.387 0 256 114.613 0 256 0s256 114.613 256 256zm0 0"
          class="">

    </path>
    <path fill="#007f40"
          d="M512 256c0-5.172-.172-10.305-.473-15.402l-60.316-60.317L256 39.727 60.79 180.28l26.116 36.278 28.961 28.125v144.554H95.34v31.098l78.031 78.031C199.293 507.2 227.086 512 256 512c141.387 0 256-114.613 256-256zm0 0"
          class="">

    </path>
    <path fill="#ffffff"
          d="M396.133 392.52H115.867V178.61L256 76.866 396.133 178.61zm0 0"
          class="">

    </path>
    <path fill="#fff5cb"
          d="M396.129 178.61v213.91H256V76.87zm0 0"
          class="">

    </path>
    <path fill="#ffc473"
          d="M425.09 216.559 256 94.809 86.906 216.559 60.79 180.28 256 39.727 451.21 180.28zm0 0"
          class="">

    </path>
    <path fill="#ffaa20"
          d="m451.21 180.281-26.12 36.278-28.961-20.848L256 94.809V39.73zm0 0"
          class="">

    </path>
    <path fill="#00a753"
          d="M241.793 346.48h28.41v46.04h-28.41zm0 0"
          class="">

    </path>
    <path fill="#007f40"
          d="M256 346.48h14.2v46.04H256zm0 0"
          class="">

    </path>
    <path fill="#00c800"
          d="M256 181.934s-61.863 64.87-61.863 110.925S231.66 353.77 256 353.77s61.863-14.855 61.863-60.91S256 181.934 256 181.934zm0 0"
          class="">

    </path>
    <path fill="#00a753"
          d="M317.863 292.86c0 46.05-37.527 60.91-61.863 60.91V181.934s61.863 64.87 61.863 110.925zm0 0"
          class="">

    </path>
    <path fill="#9ee98f"
          d="M95.34 389.238h321.32v31.098H95.34zm0 0"
          class="">

    </path>
    <path fill="#2cd729"
          d="M256 389.238h160.66v31.09H256zm0 0"
          class="">

    </path>
  </g>
</svg>
