<?xml version="1.0" encoding="UTF-8" standalone="no"?>
<svg
  version="1.1"
  width="512"
  height="512"
  x="0"
  y="0"
  viewBox="0 0 60 60"
  style="enable-background:new 0 0 512 512"
  xml:space="preserve"
  class=""
  id="svg21909"
  sodipodi:docname="temperature.svg"
  inkscape:version="1.2.2 (732a01da63, 2022-12-09, custom)"
  xmlns:inkscape="http://www.inkscape.org/namespaces/inkscape"
  xmlns:sodipodi="http://sodipodi.sourceforge.net/DTD/sodipodi-0.dtd"
  xmlns="http://www.w3.org/2000/svg"
  xmlns:svg="http://www.w3.org/2000/svg">
  <defs
    id="defs21913"/>
  <sodipodi:namedview
    id="namedview21911"
    pagecolor="#505050"
    bordercolor="#eeeeee"
    borderopacity="1"
    inkscape:showpageshadow="0"
    inkscape:pageopacity="0"
    inkscape:pagecheckerboard="0"
    inkscape:deskcolor="#505050"
    showgrid="false"
    inkscape:zoom="0.82519531"
    inkscape:cx="39.990533"
    inkscape:cy="376.88047"
    inkscape:window-width="1846"
    inkscape:window-height="1011"
    inkscape:window-x="74"
    inkscape:window-y="32"
    inkscape:window-maximized="1"
    inkscape:current-layer="svg21909"/>
  <g
    id="g31085">
  <g id="g23213"
     transform="matrix(1.0537752,0,0,1.0537752,65.496148,-1.6132552)">
    <path
      id="path22674"
      style="fill:#efb31d;stroke:none;stroke-width:0.916523;stroke-linecap:round;stroke-linejoin:round;stroke-dasharray:none;paint-order:stroke fill markers"
      transform="translate(-63.5638,0.95347595)"
      d="m 29.733137,55.92776 c 0,0 -1.212239,-8.57959 -4.609957,-9.509803 -3.397718,-0.930213 -8.811112,5.83544 -8.811112,5.83544 0,0 3.239966,-8.036262 0.762562,-10.540709 -2.477404,-2.504447 -10.5483662,0.648083 -10.5483662,0.648083 0,0 6.8240232,-5.339625 5.9307522,-8.747241 -0.893271,-3.407616 -9.4591949,-4.712926 -9.4591949,-4.712926 0,0 8.5795899,-1.212239 9.5098029,-4.609957 0.930213,-3.397718 -5.8354401,-8.811111 -5.8354401,-8.811111 0,0 8.0362621,3.239965 10.5407091,0.762561 C 19.71734,13.764693 16.56481,5.6937309 16.56481,5.6937309 c 0,0 5.339625,6.8240231 8.747241,5.9307521 3.407616,-0.893271 4.712926,-9.4591948 4.712926,-9.4591948 0,0 1.212239,8.5795898 4.609957,9.5098028 3.397718,0.930213 8.811111,-5.83544 8.811111,-5.83544 0,0 -3.239965,8.036262 -0.762561,10.540709 2.477404,2.504447 10.548366,-0.648083 10.548366,-0.648083 0,0 -6.824023,5.339625 -5.930752,8.747241 0.893271,3.407616 9.459195,4.712926 9.459195,4.712926 0,0 -8.57959,1.212239 -9.509803,4.609957 -0.930213,3.397718 5.83544,8.811111 5.83544,8.811111 0,0 -8.036262,-3.239965 -10.540709,-0.762561 -2.504447,2.477404 0.648083,10.548366 0.648083,10.548366 0,0 -5.339625,-6.824023 -8.747241,-5.930752 -3.407616,0.893271 -4.712926,9.459195 -4.712926,9.459195 z"/>
</g>
    <circle
      style="fill:#f2c952;fill-opacity:1;stroke:none;stroke-width:0.83591;stroke-linecap:round;stroke-linejoin:round;stroke-dasharray:none;paint-order:stroke fill markers"
      id="path23269"
      cx="30.000002"
      cy="30"
      r="13.680675"/>
    <path
      fill="#e2e2e0"
      d="M 53.037151,46.017099 A 8.1869155,8.1869155 0 1 1 41.341557,38.619636 V 23.795471 a 3.5086781,3.5086781 0 0 1 3.508679,-3.508678 3.5139411,3.5139411 0 0 1 3.508678,3.508678 v 14.824165 a 8.1904242,8.1904242 0 0 1 4.678237,7.397463 z"
      class=""
      id="path21897"
      style="stroke-width:0.58478"/>
    <path
      fill="#f45151"
      d="M 50.113253,46.017099 A 5.2630171,5.2630171 0 1 1 43.680676,40.882733 V 27.888928 l 0.58478,-0.584779 h 1.169559 l 0.58478,0.584779 v 12.993805 a 5.2676954,5.2676954 0 0 1 4.093458,5.134366 z"
      class=""
      id="path21899"
      style="stroke:#f45151;stroke-width:1.52344;stroke-linecap:butt;stroke-dasharray:none;stroke-opacity:1"/>
    <path
      fill="#cccccc"
      d="m 46.019795,23.795471 v 4.093457 h -2.339119 v -4.093457 a 1.173068,1.173068 0 0 1 1.16956,-1.16956 1.1783311,1.1783311 0 0 1 1.169559,1.16956 z"
      class=""
      id="path21901"
      style="stroke:#cccccc;stroke-width:1.57031;stroke-dasharray:none;stroke-opacity:1"/>
  </g>
</svg>
