<svg xmlns="http://www.w3.org/2000/svg"
     version="1.1"
     width="512"
     height="512"
     x="0"
     y="0"
     viewBox="0 0 512 512"
     style="enable-background:new 0 0 512 512"
     xml:space="preserve"
     class="">
  <g>
    <circle cx="255.996"
            cy="255.996"
            r="255.996"
            style=""
            fill="#af2c3c"
            class=""></circle>
    <path d="M512 255.999c0-3.003-.071-5.988-.173-8.966L373.208 108.415c-29.36-31.17-71.008-50.636-117.209-50.636-88.915 0-160.997 72.08-160.997 160.997 0 34.841 15.59 67.094 38.127 93.441l-17.983 16.997-.883-.934c-8.243-8.722-22.124-9.113-30.847-.87L70.939 339.2c-8.722 8.243-9.113 22.124-.87 30.847l41.274 43.672a21.662 21.662 0 0 0 2.44 2.184l90.653 90.902A257.176 257.176 0 0 0 256.001 512C397.385 512 512 397.385 512 255.999z"
          style=""
          fill="#852b36"
          class=""></path>
    <path d="M114.536 314.756h57.523v54.879h-57.523z"
          style=""
          transform="scale(-1) rotate(46.617 794.224 -332.59)"
          fill="#57555c"
          class=""></path>
    <path d="m111.343 413.718-41.274-43.672c-8.243-8.723-7.851-22.603.87-30.846l12.477-11.793c8.723-8.243 22.603-7.851 30.846.87l41.274 43.672c8.243 8.723 7.851 22.603-.87 30.847l-12.477 11.792c-8.723 8.245-22.603 7.853-30.846-.87z"
          style=""
          fill="#3c3b41"
          class=""></path>
    <path d="M339.923 314.753h57.523v54.879h-57.523z"
          style=""
          transform="rotate(-46.617 368.672 342.18)"
          fill="#3c3b41"
          class=""></path>
    <path d="m400.658 413.718 41.274-43.672c8.243-8.723 7.851-22.603-.87-30.846l-12.477-11.793c-8.723-8.243-22.603-7.851-30.847.87l-41.274 43.672c-8.243 8.723-7.851 22.603.87 30.847l12.477 11.792c8.722 8.245 22.603 7.853 30.847-.87z"
          style=""
          fill="#29292b"
          class=""></path>
    <path d="M95.004 218.776c0-88.915 72.08-160.997 160.997-160.997s160.997 72.08 160.997 160.997c0 88.915-101.525 160.997-160.997 160.997S95.004 307.691 95.004 218.776z"
          style=""
          fill="#3c3b41"
          class=""></path>
    <path d="M256.001 57.779v321.992c59.471 0 160.997-72.08 160.997-160.997S344.916 57.779 256.001 57.779z"
          style=""
          fill="#29292b"
          class=""></path>
    <circle cx="180.89"
            cy="195.153"
            r="62.014"
            style=""
            fill="#ffffff"></circle>
    <circle cx="180.89"
            cy="195.153"
            r="44.063"
            style=""
            fill="#57555c"
            class=""></circle>
    <path d="M189.73 151.969 154.583 230.5a44.402 44.402 0 0 1-11.551-12.804l29.446-65.806a43.752 43.752 0 0 1 8.414-.809c3.028 0 5.987.306 8.838.888zM205.81 158.804l-35.413 79.143a43.427 43.427 0 0 1-9.341-3.452l35.966-80.366a43.717 43.717 0 0 1 8.788 4.675z"
          style=""
          fill="#c8c6cc"></path>
    <circle cx="331.103"
            cy="195.153"
            r="62.014"
            style=""
            fill="#d8d8da"
            class=""></circle>
    <circle cx="331.103"
            cy="195.153"
            r="44.063"
            style=""
            fill="#3c3b41"
            class=""></circle>
    <path d="M339.942 151.969 304.796 230.5a44.402 44.402 0 0 1-11.551-12.804l29.446-65.806a43.752 43.752 0 0 1 8.414-.809c3.027 0 5.987.306 8.837.888zM356.021 158.804l-35.413 79.143a43.427 43.427 0 0 1-9.341-3.452l35.966-80.366a43.663 43.663 0 0 1 8.788 4.675z"
          style=""
          fill="#8b8992"
          class=""></path>
    <path d="M268.679 396.312h-25.357c-27.585 0-50.154-22.569-50.154-50.154v-40.872c0-27.585 22.569-50.154 50.154-50.154h25.357c27.585 0 50.154 22.569 50.154 50.154v40.872c.001 27.584-22.569 50.154-50.154 50.154z"
          style=""
          fill="#57555c"
          class=""></path>
    <path d="M268.679 255.131H256v141.18h12.679c27.585 0 50.154-22.569 50.154-50.154v-40.872c.001-27.584-22.569-50.154-50.154-50.154z"
          style=""
          fill="#3c3b41"
          class=""></path>
    <path d="M268.863 379.223h-25.725c-19.13 0-34.78-15.651-34.78-34.78v-37.441c0-19.13 15.651-34.78 34.78-34.78h25.725c19.13 0 34.78 15.651 34.78 34.78v37.441c0 19.128-15.651 34.78-34.78 34.78z"
          style=""
          fill="#78777f"
          class=""></path>
    <path d="M268.863 272.22H256v107.002h12.863c19.129 0 34.78-15.651 34.78-34.781V307c0-19.128-15.651-34.78-34.78-34.78z"
          style=""
          fill="#57555c"
          class=""></path>
    <circle cx="230.198"
            cy="310.121"
            r="10.021"
            style=""
            fill="#57555c"
            class=""></circle>
    <circle cx="255.996"
            cy="310.121"
            r="10.021"
            style=""
            fill="#57555c"
            class=""></circle>
    <path d="M266.021 310.116c0-5.535-4.487-10.021-10.021-10.021v20.042c5.534.001 10.021-4.486 10.021-10.021z"
          style=""
          fill="#3c3b41"
          class=""></path>
    <circle cx="281.805"
            cy="310.121"
            r="10.021"
            style=""
            fill="#3c3b41"
            class=""></circle>
    <circle cx="230.198"
            cy="341.332"
            r="10.021"
            style=""
            fill="#57555c"
            class=""></circle>
    <circle cx="255.996"
            cy="341.332"
            r="10.021"
            style=""
            fill="#57555c"
            class=""></circle>
    <path d="M256.001 331.305v20.042c5.535 0 10.021-4.487 10.021-10.021-.001-5.534-4.488-10.021-10.021-10.021z"
          style=""
          fill="#3c3b41"
          class=""></path>
    <circle cx="281.805"
            cy="341.332"
            r="10.021"
            style=""
            fill="#3c3b41"
            class=""></circle>
  </g>
</svg>
