<svg xmlns="http://www.w3.org/2000/svg"
     version="1.1"
     width="512"
     height="512"
     x="0"
     y="0"
     viewBox="0 0 512 512"
     style="enable-background:new 0 0 512 512"
     xml:space="preserve"
     class="">
  <g>
    <g fill="#e0e5f5">
      <path d="M63.966 144.199a7.5 7.5 0 0 1-7.501-7.501V68.279a7.5 7.5 0 0 1 7.501-7.501h68.419c4.143 0 7.501 3.358 7.501 7.501s-3.358 7.501-7.501 7.501H71.467v60.918a7.502 7.502 0 0 1-7.501 7.501zM448.034 144.199a7.5 7.5 0 0 1-7.501-7.501V75.78h-60.918c-4.143 0-7.501-3.358-7.501-7.501s3.358-7.501 7.501-7.501h68.419a7.5 7.5 0 0 1 7.501 7.501v68.419a7.501 7.501 0 0 1-7.501 7.501zM448.034 460.177h-68.419c-4.143 0-7.501-3.358-7.501-7.501s3.358-7.501 7.501-7.501h60.918v-60.918c0-4.143 3.358-7.501 7.501-7.501s7.501 3.358 7.501 7.501v68.419a7.5 7.5 0 0 1-7.501 7.501zM132.385 460.177H63.966a7.5 7.5 0 0 1-7.501-7.501v-68.419c0-4.143 3.358-7.501 7.501-7.501s7.501 3.358 7.501 7.501v60.918h60.918a7.5 7.5 0 1 1 0 15.002z"
            fill="#e0e5f5"></path></g>
    <path fill="#65b7c7"
          d="M380.345 305.728c0 67.519-54.787 122.253-122.369 122.253s-122.369-54.735-122.369-122.253c0-94.036 122.369-212.754 122.369-212.754s122.369 114.928 122.369 212.754z"
          class=""></path>
    <path fill="#50a9ba"
          d="M257.976 92.974s-7.933 7.7-19.748 20.712C272.996 151.174 340.34 233.15 340.34 305.728c0 60.712-44.301 111.079-102.367 120.618a123.348 123.348 0 0 0 20.002 1.635c67.583 0 122.369-54.735 122.369-122.253.001-97.826-122.368-212.754-122.368-212.754z"
    ></path>
    <g fill="#fff"><path d="M233.505 358.156a7.5 7.5 0 0 1-6.912-10.407l50.569-120.384c1.606-3.819 6.006-5.615 9.82-4.01a7.5 7.5 0 0 1 4.011 9.82l-50.57 120.384a7.503 7.503 0 0 1-6.918 4.597zM223.827 284.041c-16.457 0-29.846-15.002-29.846-33.441 0-18.44 13.389-33.442 29.846-33.442s29.846 15.002 29.846 33.442c0 18.439-13.389 33.441-29.846 33.441zm0-51.882c-8.185 0-14.844 8.272-14.844 18.44s6.659 18.44 14.844 18.44 14.844-8.272 14.844-18.44c0-10.167-6.659-18.44-14.844-18.44zM292.124 366.349c-16.457 0-29.845-15.002-29.845-33.441 0-18.44 13.388-33.442 29.845-33.442s29.846 15.002 29.846 33.442-13.389 33.441-29.846 33.441zm0-51.881c-8.185 0-14.844 8.272-14.844 18.44s6.659 18.44 14.844 18.44c8.186 0 14.845-8.272 14.845-18.44s-6.659-18.44-14.845-18.44z" fill="#ffffff" data-original="#ffffff"></path></g>
    <path fill="#ff8fb4"
          d="M325.146 504.499H192.159l15.529-30.123a25.915 25.915 0 0 1 23.037-14.033h55.855a25.916 25.916 0 0 1 23.037 14.033z"
    ></path>
    <path fill="#fa7aa5"
          d="M309.617 474.376a25.915 25.915 0 0 0-23.037-14.033h-40.005a25.916 25.916 0 0 1 23.037 14.033l15.529 30.123h40.005z"
    ></path>
    <path fill="#e66590"
          d="M341.192 496.998H175.448c-4.143 0-7.501 3.358-7.501 7.501s3.358 7.501 7.501 7.501h165.744c4.143 0 7.501-3.358 7.501-7.501s-3.357-7.501-7.501-7.501z"
    ></path>
    <g fill="#c7cbd9"><path d="M282.456 67.56c-13.31-13.293-34.963-13.292-48.271 0a7.502 7.502 0 0 1-10.602-10.614c19.155-19.133 50.321-19.134 69.474 0 2.931 2.928 3.158 7.919.007 10.608-5.064 4.321-9.144 1.469-10.608.006z" fill="#c7cbd9" data-original="#c7cbd9"></path>
      <path d="M309.759 36.243c-28.363-28.333-74.516-28.332-102.878 0a7.5 7.5 0 1 1-10.602-10.614c34.209-34.172 89.872-34.172 124.083 0 2.93 2.928 3.056 7.805.006 10.608-4.368 4.013-9.144 1.469-10.609.006z"
            fill="#c7cbd9"
      >

      </path>
    </g>
  </g>
</svg>
