<svg enable-background="new 0 0 512 512"
     height="512"
     viewBox="0 0 512 512"
     width="512"
     xmlns="http://www.w3.org/2000/svg">
  <g>
    <circle cx="256"
            cy="256"
            fill="#FDD64B"
            r="256"/>
    <path d="m499.927 178.086-23.302-23.302-4.145 1.933-34.211-34.211-14.659 18.428-37.592-37.592-351.386 209.077 198.581 198.581c7.507.662 15.107 1 22.787 1 141.385 0 256-114.615 256-256 0-27.167-4.232-53.346-12.073-77.914z"
          fill="#948032"/>
    <g>
      <path d="m256 420.308c-99.8 0-181.007-79.607-183.586-178.785-.042-1.616 42.439-62.778 42.439-64.405 0-47.77 5.63-64.405 5.63-64.405 33.579-36.692 81.861-59.702 135.517-59.702l96.849 178.268z"
            fill="#64a7c0"/>
      <g>
        <path d="m433.135 188.007c-2.578-9.406-13.944-13.242-17.915-21.98-3.193-7.027 1.244-19.085-2.776-25.605-32.328-52.442-90.288-87.401-156.413-87.412v367.297c39.431-.007 75.958-12.44 105.879-33.597 20.96-14.821 22.464-42.295 35.666-64.405 12.988-21.751 37.821-38.043 40.857-64.405.803-6.969 1.215-14.057 1.215-21.242.001-16.842-2.267-33.155-6.513-48.651z"
              fill="#5690a4"/>
      </g>
      <g>
        <path d="m158.217 203.583c0-.053 0-.106 0-.16-.034-8.138 6.355-14.831 14.493-14.831h26.962c20.954 0 37.94-16.986 37.94-37.94 0-20.953-16.986-37.939-37.94-37.939h-79.187c-29.894 32.666-48.133 76.176-48.133 123.946 0 1.626.021 3.247.063 4.864h47.862c20.953 0 37.94-16.986 37.94-37.94z"
              fill="#63c65c"/>
        <path d="m438.433 257.901h-95.437c-20.953 0-37.94 16.986-37.94 37.94v.16c.033 8.138-6.355 14.83-14.493 14.83h-26.963c-20.953 0-37.94 16.986-37.94 37.94s16.986 37.94 37.94 37.94h98.308c41.582-29.403 70.403-75.652 76.525-128.81z"
              fill="#63c65c"/>
        <g>
          <path d="m342.996 257.901c-20.953 0-37.94 16.986-37.94 37.94v.16c.033 8.138-6.355 14.83-14.493 14.83h-26.963c-2.592 0-5.124.26-7.57.756v74.368c2.446.495 4.978.756 7.57.756h98.308c41.58-29.402 70.401-75.651 76.523-128.809h-95.435z"
                fill="#36996c"/>
        </g>
        <path d="m316.676 164.215c0 13.14 10.652 23.792 23.793 23.792h92.666c-4.65-16.969-11.673-32.957-20.69-47.585h-71.976c-13.141.001-23.793 10.653-23.793 23.793z"
              fill="#1a7a67"/>
      </g>
    </g>
    <path d="m195.337 233.791c-3.507-.226-6.904.106-10.112.914-.927-17.105-15.09-30.69-32.427-30.69-9.403 0-17.872 3.996-23.803 10.383-5.931-6.387-14.4-10.383-23.803-10.383-17.936 0-32.476 14.54-32.476 32.475 0 .196.003.392.006.587h-4.912c-24.84 0-44.978 20.137-44.978 44.978 0 24.84 20.137 44.978 44.978 44.978h97.754c16.655 0 30.382-12.538 32.257-28.689 16.454-2.351 28.931-17.035 27.766-34.389-1.082-16.104-14.144-29.125-30.25-30.164z"
          fill="#364859"/>
    <path d="m452.168 142.635h-7.607c0-19.524-15.827-35.351-35.351-35.351-6.231 0-12.085 1.612-17.169 4.442-5.871-11.386-17.746-19.172-31.439-19.172-19.524 0-35.351 15.827-35.351 35.351 0 2.032.172 4.024.501 5.962-16.533 2.959-29.081 17.413-29.081 34.797 0 19.524 15.827 35.351 35.351 35.351h120.146c16.95 0 30.69-13.74 30.69-30.69 0-16.949-13.74-30.69-30.69-30.69z"
          fill="#1e262d"/>
    <path d="m209.189 386.833h8.199c0-21.043 17.059-38.102 38.102-38.102 6.716 0 13.026 1.738 18.505 4.788 6.328-12.272 19.127-20.664 33.886-20.664 21.043 0 38.102 17.059 38.102 38.102 0 2.19-.185 4.337-.54 6.426 17.82 3.19 31.344 18.768 31.344 37.505 0 21.043-17.059 38.102-38.102 38.102h-129.496c-18.269 0-33.079-14.81-33.079-33.078 0-18.27 14.81-33.079 33.079-33.079z"
          fill="#364859"/>
    <path d="m256.031 452.989h82.654c21.043 0 38.102-17.059 38.102-38.102 0-18.737-13.525-34.315-31.344-37.505.355-2.089.54-4.236.54-6.426 0-21.043-17.059-38.102-38.102-38.102-14.759 0-27.558 8.392-33.886 20.664-5.332-2.968-11.45-4.693-17.964-4.784z"
          fill="#1e262d"/>
  </g>
</svg>
