<?xml version="1.0" encoding="UTF-8" standalone="no"?>
<svg
   version="1.1"
   width="512"
   height="512"
   x="0"
   y="0"
   viewBox="0 0 512 512"
   style="enable-background:new 0 0 512 512"
   xml:space="preserve"
   class=""
   id="svg7956"
   sodipodi:docname="pm-10.svg"
   inkscape:version="1.2.2 (732a01da63, 2022-12-09, custom)"
   xmlns:inkscape="http://www.inkscape.org/namespaces/inkscape"
   xmlns:sodipodi="http://sodipodi.sourceforge.net/DTD/sodipodi-0.dtd"
   xmlns="http://www.w3.org/2000/svg"
   xmlns:svg="http://www.w3.org/2000/svg"><defs
   id="defs7960" /><sodipodi:namedview
   id="namedview7958"
   pagecolor="#505050"
   bordercolor="#eeeeee"
   borderopacity="1"
   inkscape:showpageshadow="0"
   inkscape:pageopacity="0"
   inkscape:pagecheckerboard="0"
   inkscape:deskcolor="#505050"
   showgrid="false"
   inkscape:zoom="1.1670024"
   inkscape:cx="158.52581"
   inkscape:cy="273.34991"
   inkscape:window-width="1846"
   inkscape:window-height="1011"
   inkscape:window-x="74"
   inkscape:window-y="32"
   inkscape:window-maximized="1"
   inkscape:current-layer="svg7956" />
  <g
   id="g7954"
   transform="matrix(0.82409485,0,0,0.82409485,45.031826,45.031718)">
    <path
   fill="#4d5e80"
   d="m 241,346 h 30 v 91 h -30 z"
   id="path7920" />
    <path
   fill="#3d4566"
   d="m 256,346 h 15 v 91 h -15 z"
   id="path7922" />
    <path
   fill="#4d5e80"
   d="m 241,75 h 30 v 91 h -30 z"
   id="path7924" />
    <path
   fill="#3d4566"
   d="m 256,75 h 15 v 91 h -15 z m 70.433,122.965 77.942,-45 15.002,25.984 -77.941,45 z"
   id="path7926" />
    <path
   fill="#4d5e80"
   d="m 92.628,332.974 77.942,-45.001 15.002,25.984 -77.942,45.001 z M 169.501,223.319 62.405,149.309 79.515,124.67 186.61,198.681 Z"
   id="path7928" />
    <path
   fill="#3d4566"
   d="M 432.486,387.345 325.39,313.319 342.499,288.681 449.595,362.706 Z"
   id="path7930" />
    <path
   fill="#7adfe3"
   d="m 256,361 c -57.891,0 -105,-47.109 -105,-105 0,-57.891 47.109,-105 105,-105 57.891,0 105,47.109 105,105 0,57.891 -47.109,105 -105,105 z"
   class=""
   id="path7932" />
    <path
   fill="#68c9e0"
   d="M 361,256 C 361,198.109 313.891,151 256,151 v 210 c 57.891,0 105,-47.109 105,-105 z"
   class=""
   id="path7934" />
    <path
   fill="#f36a3d"
   d="m 256,90 c -24.814,0 -45,-20.186 -45,-45 0,-24.814 20.186,-45 45,-45 24.814,0 45,20.186 45,45 0,24.814 -20.186,45 -45,45 z"
   class=""
   id="path7936" />
    <path
   fill="#ec4c36"
   d="M 301,45 C 301,20.186 280.814,0 256,0 v 90 c 24.814,0 45,-20.186 45,-45 z"
   class=""
   id="path7938" />
    <path
   fill="#f36a3d"
   d="m 256,512 c -24.814,0 -45,-20.186 -45,-45 0,-24.814 20.186,-45 45,-45 24.814,0 45,20.186 45,45 0,24.814 -20.186,45 -45,45 z"
   class=""
   id="path7940" />
    <path
   fill="#ec4c36"
   d="m 301,467 c 0,-24.814 -20.186,-45 -45,-45 v 90 c 24.814,0 45,-20.186 45,-45 z"
   class=""
   id="path7942" />
    <path
   fill="#f36a3d"
   d="m 35.16,383.5 c -12.393,-21.504 -4.995,-49.072 16.479,-61.479 21.387,-12.35 48.962,-5.187 61.465,16.494 12.407,21.46 5.024,49.043 -16.45,61.465 C 75.302,412.269 47.68,405.151 35.16,383.5 Z"
   class=""
   id="path7944" />
    <path
   fill="#ec4c36"
   d="m 398.896,173.485 c -12.407,-21.46 -5.024,-49.043 16.45,-61.465 h 0.029 c 21.489,-12.422 49.058,-5.01 61.465,16.479 12.393,21.504 4.995,49.072 -16.479,61.479 -21.627,12.484 -49.092,4.965 -61.465,-16.493 z m 45.631,255.52 h -0.029 C 423.023,416.583 415.641,389 428.048,367.526 c 12.338,-21.366 39.713,-29.01 61.465,-16.479 21.475,12.407 28.872,39.976 16.479,61.465 -12.432,21.519 -40.015,28.865 -61.465,16.493 z"
   class=""
   id="path7946" />
    <path
   fill="#f36a3d"
   d="M 22.488,160.969 C 1.014,148.562 -6.384,120.993 6.009,99.504 18.431,78.03 45.984,70.588 67.473,83.01 c 21.505,12.422 28.887,40.005 16.48,61.479 -12.506,21.656 -40.061,28.834 -61.465,16.48 z"
   class=""
   id="path7948" />
    <path
   fill="#68c9e0"
   d="m 256,301 c -24.814,0 -45,-20.186 -45,-45 0,-24.814 20.186,-45 45,-45 24.814,0 45,20.186 45,45 0,24.814 -20.186,45 -45,45 z"
   class=""
   id="path7950" />
    <path
   fill="#55b3dc"
   d="m 301,256 c 0,-24.814 -20.186,-45 -45,-45 v 90 c 24.814,0 45,-20.186 45,-45 z"
   class=""
   id="path7952" />
  </g>
</svg>
