<svg xmlns="http://www.w3.org/2000/svg"
     version="1.1"
     width="512"
     height="512"
     x="0"
     y="0"
     viewBox="0 0 512 512"
     style="enable-background:new 0 0 512 512"
     xml:space="preserve"
     class="">
  <g>
    <path fill="#4d5e80"
          d="M241 346h30v91h-30z"></path>
    <path fill="#3d4566"
          d="M256 346h15v91h-15z"></path>
    <path fill="#4d5e80"
          d="M241 75h30v91h-30z"></path>
    <path fill="#3d4566"
          d="M256 75h15v91h-15zM326.433 197.965l77.942-45 15.002 25.984-77.941 45z"
    ></path>
    <path fill="#4d5e80"
          d="m92.628 332.974 77.942-45.001 15.002 25.984-77.942 45.001zM169.501 223.319l-107.096-74.01 17.11-24.639 107.095 74.011z"
    ></path>
    <path fill="#3d4566"
          d="M432.486 387.345 325.39 313.319l17.109-24.638 107.096 74.025z"
    ></path>
    <path fill="#7adfe3"
          d="M256 361c-57.891 0-105-47.109-105-105s47.109-105 105-105 105 47.109 105 105-47.109 105-105 105z"
          class=""></path>
    <path fill="#68c9e0"
          d="M361 256c0-57.891-47.109-105-105-105v210c57.891 0 105-47.109 105-105z"
          class=""></path>
    <path fill="#f36a3d"
          d="M256 90c-24.814 0-45-20.186-45-45s20.186-45 45-45 45 20.186 45 45-20.186 45-45 45z"
          class=""></path>
    <path fill="#ec4c36"
          d="M301 45c0-24.814-20.186-45-45-45v90c24.814 0 45-20.186 45-45z"
          class=""></path>
    <path fill="#f36a3d"
          d="M256 512c-24.814 0-45-20.186-45-45s20.186-45 45-45 45 20.186 45 45-20.186 45-45 45z"
          class=""></path>
    <path fill="#ec4c36"
          d="M301 467c0-24.814-20.186-45-45-45v90c24.814 0 45-20.186 45-45z"
          class=""></path>
    <path fill="#f36a3d"
          d="M35.16 383.5c-12.393-21.504-4.995-49.072 16.479-61.479 21.387-12.35 48.962-5.187 61.465 16.494 12.407 21.46 5.024 49.043-16.45 61.465-21.352 12.289-48.974 5.171-61.494-16.48z"
          class=""></path>
    <path fill="#ec4c36"
          d="M398.896 173.485c-12.407-21.46-5.024-49.043 16.45-61.465h.029c21.489-12.422 49.058-5.01 61.465 16.479 12.393 21.504 4.995 49.072-16.479 61.479-21.627 12.484-49.092 4.965-61.465-16.493zM444.527 429.005h-.029c-21.475-12.422-28.857-40.005-16.45-61.479 12.338-21.366 39.713-29.01 61.465-16.479 21.475 12.407 28.872 39.976 16.479 61.465-12.432 21.519-40.015 28.865-61.465 16.493z"
          class=""></path>
    <path fill="#f36a3d"
          d="M22.488 160.969C1.014 148.562-6.384 120.993 6.009 99.504 18.431 78.03 45.984 70.588 67.473 83.01c21.505 12.422 28.887 40.005 16.48 61.479-12.506 21.656-40.061 28.834-61.465 16.48z"
          class=""></path>
    <path fill="#68c9e0"
          d="M256 301c-24.814 0-45-20.186-45-45s20.186-45 45-45 45 20.186 45 45-20.186 45-45 45z"
          class=""></path>
    <path fill="#55b3dc"
          d="M301 256c0-24.814-20.186-45-45-45v90c24.814 0 45-20.186 45-45z"
          class=""></path>
  </g>
</svg>
