<svg xmlns="http://www.w3.org/2000/svg" version="1.1" xmlns:xlink="http://www.w3.org/1999/xlink" xmlns:svgjs="http://svgjs.com/svgjs" width="512" height="512" x="0" y="0" viewBox="0 0 512 512" style="enable-background:new 0 0 512 512" xml:space="preserve" class=""><g><path fill="#5c6c9c" d="M62.602 158.363c3.251-1.013 5.428-4.021 5.512-7.425 1.684-68.541 58.539-124.865 128.268-124.644 47.305 0 88.623 25.549 110.871 63.57 2.281 3.897 7.418 5.117 11.191 2.636 12.126-7.976 26.645-12.621 42.255-12.621 40.123 0 73.052 30.665 76.574 69.788a7.96 7.96 0 0 0 6.104 7.051C482.72 165.994 512 201.258 512 243.351c0 49.166-39.942 89.022-89.212 89.022H89.212C39.942 332.374 0 292.517 0 243.352c0-39.917 26.33-73.692 62.602-84.989z" data-original="#5c6c9c" class=""></path><path fill="#4e517e" d="M443.377 156.719a7.96 7.96 0 0 1-6.104-7.051c-3.522-39.123-36.451-69.788-76.574-69.788-15.61 0-30.129 4.645-42.255 12.621-3.773 2.482-8.911 1.261-11.191-2.636-12.124-20.72-29.92-37.721-51.253-48.917v291.426h166.788c49.27 0 89.212-39.857 89.212-89.022 0-42.094-29.28-77.358-68.623-86.633zM77.003 358.834H52.519c-8.284 0-15 6.716-15 15v96.532c0 8.284 6.716 15 15 15s15-6.716 15-15V447.58h9.483c24.464 0 44.367-19.905 44.367-44.373s-19.902-44.373-44.366-44.373zm0 58.746H67.52v-28.746h9.483c7.922 0 14.367 6.448 14.367 14.373s-6.446 14.373-14.367 14.373zM217.72 359.442a14.999 14.999 0 0 0-16.845 6.284l-16.079 25.025-17.349-25.381a15 15 0 0 0-27.383 8.464v96.532c0 8.284 6.716 15 15 15s15-6.716 15-15v-48.005l2.735 4.002a15.041 15.041 0 0 0 12.598 6.534 15.002 15.002 0 0 0 12.406-6.89l.692-1.077v45.436c0 8.284 6.716 15 15 15s15-6.716 15-15v-96.532a15 15 0 0 0-10.775-14.392z" data-original="#4e517e" class=""></path><g fill="#37385d"><path d="M439.098 400.238v-11.256h25.75c8.284 0 15-6.716 15-15s-6.716-15-15-15h-40.75c-8.284 0-15 6.716-15 15v42.681a14.998 14.998 0 0 0 18.009 14.696c13.434-2.749 23.836-.616 27.826 5.707 2.379 3.772 2.124 8.759-.636 12.411-4.7 6.218-15.424 7.599-28.683 3.696-7.947-2.341-16.287 2.206-18.626 10.152-2.34 7.947 2.206 16.286 10.152 18.626 7.675 2.26 15.092 3.366 22.057 3.366 16.375 0 30.241-6.119 39.033-17.752 10.241-13.55 11.075-32.239 2.076-46.505-8.304-13.165-23.093-20.445-41.208-20.822zM354.049 443.171c14.189-8.358 33.623-19.806 33.623-45.556 0-21.396-17.739-38.802-39.544-38.802s-39.544 17.407-39.544 38.802c0 8.284 6.716 15 15 15s15-6.716 15-15c0-4.854 4.281-8.802 9.544-8.802s9.544 3.949 9.544 8.802c0 7.417-4.476 11.24-18.85 19.707-18.709 11.021-30.295 31.361-30.238 53.083.022 8.269 6.731 14.96 15 14.96h49.088c8.284 0 15-6.716 15-15s-6.716-15-15-15h-30.326a31.426 31.426 0 0 1 11.703-12.194z" fill="#37385d" data-original="#37385d" class=""></path><circle cx="268.109" cy="470.707" r="15" fill="#37385d" data-original="#37385d" class=""></circle></g><circle cx="194.067" cy="208.807" r="15" fill="#4e517e" data-original="#4e517e" class=""></circle><circle cx="451.071" cy="45.426" r="15" fill="#37385d" data-original="#37385d" class=""></circle><circle cx="40.476" cy="79.693" r="15" fill="#4e517e" data-original="#4e517e" class=""></circle></g></svg>
