<svg xmlns="http://www.w3.org/2000/svg"
     version="1.1"
     width="512"
     height="512"
     x="0"
     y="0"
     viewBox="0 0 512 512"
     style="enable-background:new 0 0 512 512"
     xml:space="preserve"
     class="">
  <g>
    <path fill="#5f5573"
          d="M254.92 81h30v126h-30z"
          class=""></path>
    <path fill="#44395a"
          d="M269.91 81h15.01v126h-15.01z"
          class=""></path>
    <path fill="#5f5573"
          d="M254.92 305h30v158h-30z"
          class=""></path>
    <path fill="#44395a"
          d="M269.91 305h15.01v158h-15.01z"
          class=""></path>
    <circle cx="269.91"
            cy="48"
            r="48"
            fill="#fedb16"></circle>
    <path fill="#fbb31a"
          d="M317.91 48c0 26.51-21.49 48-48 48V0c26.51 0 48 21.49 48 48z"></path>
    <path fill="#5f5573"
          d="m82.682 152.02 16.92-24.78 135.796 92.723-16.92 24.78z"
          class=""></path>
    <path fill="#44395a"
          d="m304.843 293.5 15-25.98 109.116 63-15 25.98zM304.841 218.508l122.976-71.002 15 25.98-122.976 71.002z"
          class=""></path>
    <path fill="#5f5573"
          d="m110.857 330.504 109.116-63 15 25.98-109.116 63z"
          class=""></path>
    <circle cx="450.048"
            cy="152"
            r="32"
            fill="#3492d9"></circle>
    <circle cx="269.91"
            cy="256"
            r="64"
            fill="#ff8288"></circle>
    <path fill="#ff497a"
          d="M333.91 256c0 35.35-28.65 64-64 64V192c35.35 0 64 28.65 64 64z"
          class=""></path>
    <circle cx="269.91"
            cy="480"
            r="32"
            fill="#00de77"></circle>
    <path fill="#00ab8e"
          d="M301.91 480c0 17.67-14.32 32-32 32v-64c17.68 0 32 14.33 32 32z"></path>
    <circle cx="61.952"
            cy="124.171"
            r="48"
            fill="#51baea"></circle>
    <circle cx="89.781"
            cy="360"
            r="48"
            fill="#fedb16"></circle>
    <circle cx="450.048"
            cy="360"
            r="48"
            fill="#ad68f7">

    </circle>
  </g>
</svg>
