<?xml version="1.0" encoding="UTF-8" standalone="no"?>
<svg
   version="1.1"
   width="512"
   height="512"
   x="0"
   y="0"
   viewBox="0 0 512 512"
   style="enable-background:new 0 0 512 512"
   xml:space="preserve"
   class=""
   id="svg6788"
   sodipodi:docname="pm-2-5.svg"
   inkscape:version="1.2.2 (732a01da63, 2022-12-09, custom)"
   xmlns:inkscape="http://www.inkscape.org/namespaces/inkscape"
   xmlns:sodipodi="http://sodipodi.sourceforge.net/DTD/sodipodi-0.dtd"
   xmlns="http://www.w3.org/2000/svg"
   xmlns:svg="http://www.w3.org/2000/svg"><defs
   id="defs6792" /><sodipodi:namedview
   id="namedview6790"
   pagecolor="#505050"
   bordercolor="#eeeeee"
   borderopacity="1"
   inkscape:showpageshadow="0"
   inkscape:pageopacity="0"
   inkscape:pagecheckerboard="0"
   inkscape:deskcolor="#505050"
   showgrid="false"
   inkscape:zoom="1.1670024"
   inkscape:cx="242.50164"
   inkscape:cy="277.63439"
   inkscape:window-width="1846"
   inkscape:window-height="1011"
   inkscape:window-x="74"
   inkscape:window-y="32"
   inkscape:window-maximized="1"
   inkscape:current-layer="svg6788" />
  <g
   id="g6786"
   transform="matrix(0.84902925,0,0,0.84902925,38.648511,38.648511)">
    <path
   fill="#5f5573"
   d="m 254.92,81 h 30 v 126 h -30 z"
   class=""
   id="path6752" />
    <path
   fill="#44395a"
   d="m 269.91,81 h 15.01 v 126 h -15.01 z"
   class=""
   id="path6754" />
    <path
   fill="#5f5573"
   d="m 254.92,305 h 30 v 158 h -30 z"
   class=""
   id="path6756" />
    <path
   fill="#44395a"
   d="m 269.91,305 h 15.01 v 158 h -15.01 z"
   class=""
   id="path6758" />
    <circle
   cx="269.91"
   cy="48"
   r="48"
   fill="#fedb16"
   id="circle6760" />
    <path
   fill="#fbb31a"
   d="m 317.91,48 c 0,26.51 -21.49,48 -48,48 V 0 c 26.51,0 48,21.49 48,48 z"
   id="path6762" />
    <path
   fill="#5f5573"
   d="m 82.682,152.02 16.92,-24.78 135.796,92.723 -16.92,24.78 z"
   class=""
   id="path6764" />
    <path
   fill="#44395a"
   d="m 304.843,293.5 15,-25.98 109.116,63 -15,25.98 z m -0.002,-74.992 122.976,-71.002 15,25.98 -122.976,71.002 z"
   class=""
   id="path6766" />
    <path
   fill="#5f5573"
   d="m 110.857,330.504 109.116,-63 15,25.98 -109.116,63 z"
   class=""
   id="path6768" />
    <circle
   cx="450.048"
   cy="152"
   r="32"
   fill="#3492d9"
   id="circle6770" />
    <circle
   cx="269.91"
   cy="256"
   r="64"
   fill="#ff8288"
   id="circle6772" />
    <path
   fill="#ff497a"
   d="m 333.91,256 c 0,35.35 -28.65,64 -64,64 V 192 c 35.35,0 64,28.65 64,64 z"
   class=""
   id="path6774" />
    <circle
   cx="269.91"
   cy="480"
   r="32"
   fill="#00de77"
   id="circle6776" />
    <path
   fill="#00ab8e"
   d="m 301.91,480 c 0,17.67 -14.32,32 -32,32 v -64 c 17.68,0 32,14.33 32,32 z"
   id="path6778" />
    <circle
   cx="61.952"
   cy="124.171"
   r="48"
   fill="#51baea"
   id="circle6780" />
    <circle
   cx="89.780998"
   cy="360"
   r="48"
   fill="#fedb16"
   id="circle6782" />
    <circle
   cx="450.048"
   cy="360"
   r="48"
   fill="#ad68f7"
   id="circle6784">

    </circle>
  </g>
</svg>
